<svg xmlns="http://www.w3.org/2000/svg" viewBox="-8320.546 -1345.576 58.871 75.817">
  <defs>
    <style>
      .cls-1 {
        fill: #fff;
      }
    </style>
  </defs>
  <g id="bitcoin-logo" transform="translate(-8311.995 -1345.576) rotate(7)">
    <path id="Path_3762" data-name="Path 3762" class="cls-1" d="M48.7,36.808a12.661,12.661,0,0,0-7.379-4.342q6.283-3.2,5.524-10.879a10.751,10.751,0,0,0-1.539-4.826,9.659,9.659,0,0,0-3.479-3.288,19.151,19.151,0,0,0-4.765-1.9,37.593,37.593,0,0,0-5.9-.949V0H24.666V10.33q-1.686,0-5.144.084V0H13.029V10.626q-1.392.042-4.09.043L0,10.626v6.915H4.68q3.2,0,3.753,2.867v12.1a4.286,4.286,0,0,1,.675.043H8.433V49.5a2.252,2.252,0,0,1-2.445,2.151H1.308L0,59.368H8.433q.8,0,2.319.02t2.277.021V70.161h6.495V59.536q1.77.043,5.144.043V70.161H31.16V59.409a50.482,50.482,0,0,0,6.134-.632,24.967,24.967,0,0,0,5.123-1.455,13.825,13.825,0,0,0,4.089-2.467,11.64,11.64,0,0,0,2.72-3.753A15.953,15.953,0,0,0,50.6,45.831Q51.147,39.972,48.7,36.808ZM19.649,18q.3,0,1.666-.021t2.277-.043q.907-.021,2.446.106a23.265,23.265,0,0,1,2.593.337,14.444,14.444,0,0,1,2.319.7,6.285,6.285,0,0,1,2.024,1.18,5.856,5.856,0,0,1,1.286,1.771,5.528,5.528,0,0,1,.528,2.466,5.866,5.866,0,0,1-.379,2.151,4.052,4.052,0,0,1-1.138,1.623,11.533,11.533,0,0,1-1.561,1.139,7.145,7.145,0,0,1-2.045.78q-1.243.3-2.171.464a17.773,17.773,0,0,1-2.319.232q-1.392.063-2.108.084t-1.961,0q-1.245-.021-1.455-.021V18h0ZM37.38,46.717A6,6,0,0,1,36.347,48.4a5.856,5.856,0,0,1-1.666,1.264,14.285,14.285,0,0,1-2,.886,16.119,16.119,0,0,1-2.34.591q-1.372.253-2.4.358t-2.466.169q-1.433.062-2.235.063t-2.024-.021q-1.223-.02-1.56-.02V37.441q.337,0,2-.042t2.72-.042q1.054,0,2.91.126a24.862,24.862,0,0,1,3.12.378,20.514,20.514,0,0,1,2.762.78,8.008,8.008,0,0,1,2.425,1.286,6.328,6.328,0,0,1,1.56,1.94,6.023,6.023,0,0,1,.232,4.849Z" transform="translate(0 0)"/>
  </g>
</svg>
