<svg xmlns="http://www.w3.org/2000/svg" viewBox="-8214.299 -1343.366 91.313 73.87">
  <defs>
    <style>
      .cls-1 {
        fill: #fff;
      }
    </style>
  </defs>
  <g id="reddit" transform="translate(-8214.299 -1343.366)">
    <g id="Group_2930" data-name="Group 2930" transform="translate(31.252 42.611)">
      <g id="Group_2929" data-name="Group 2929">
        <path id="Path_3776" data-name="Path 3776" class="cls-1" d="M176,289.089v.006h2.841Z" transform="translate(-176 -289.089)"/>
      </g>
    </g>
    <g id="Group_2932" data-name="Group 2932" transform="translate(59.664 42.611)">
      <g id="Group_2931" data-name="Group 2931">
        <path id="Path_3777" data-name="Path 3777" class="cls-1" d="M336,289.089v.006h2.841Z" transform="translate(-336 -289.089)"/>
      </g>
    </g>
    <g id="Group_2934" data-name="Group 2934" transform="translate(0 0)">
      <g id="Group_2933" data-name="Group 2933">
        <path id="Path_3778" data-name="Path 3778" class="cls-1" d="M91.314,83.213A11.376,11.376,0,0,0,79.949,71.849a11.221,11.221,0,0,0-6.83,2.3c-6.341-4.4-14.649-7.029-23.485-7.694L54.4,55.274l13.87,3.239a8.482,8.482,0,1,0,1.318-5.529l-16.211-3.79a2.84,2.84,0,0,0-3.267,1.654L43.52,66.3c-9.54.33-18.632,3.017-25.5,7.7a11.133,11.133,0,0,0-6.66-2.154A11.376,11.376,0,0,0,0,83.213a11.254,11.254,0,0,0,5.745,9.836c-.045.5-.063,1.011-.063,1.529,0,15.666,17.842,28.411,39.776,28.411s39.776-12.745,39.776-28.411c0-.443-.017-.881-.045-1.318A11.255,11.255,0,0,0,91.314,83.213ZM76.71,54.8a2.841,2.841,0,1,1-2.841,2.841A2.846,2.846,0,0,1,76.71,54.8ZM25.57,91.737a5.682,5.682,0,1,1,5.682,5.682A5.692,5.692,0,0,1,25.57,91.737Zm33.008,18.848a22.351,22.351,0,0,1-26.241,0,2.84,2.84,0,0,1,3.33-4.6,16.665,16.665,0,0,0,19.581,0,2.84,2.84,0,0,1,3.33,4.6Zm1.085-13.166a5.682,5.682,0,1,1,5.682-5.682A5.684,5.684,0,0,1,59.664,97.419Z" transform="translate(0 -49.119)"/>
      </g>
    </g>
  </g>
</svg>
