<svg xmlns="http://www.w3.org/2000/svg" viewBox="-8803.123 -1345.576 62.862 52.95">
  <defs>
    <style>
      .cls-1 {
        fill: #fff;
      }
    </style>
  </defs>
  <path id="Path_2654" data-name="Path 2654" class="cls-1" d="M168.291,132.761a2.958,2.958,0,0,1,3.971,3.361l-9.818,46.927a3.092,3.092,0,0,1-4.855,1.86L142.769,174.03l-7.555,7.713a2.511,2.511,0,0,1-4.186-1l-5.45-17.3-14.61-4.314a2.1,2.1,0,0,1-.17-3.964Zm-7.206,10.41a.7.7,0,0,0-.828-1.113l-31.535,19.557a1.433,1.433,0,0,0-.614,1.645l4.3,18.885a.275.275,0,0,0,.536-.052l.961-14.389a1.423,1.423,0,0,1,.474-.917Z" transform="translate(-8912.586 -1478.134)"/>
</svg>
