<svg xmlns="http://www.w3.org/2000/svg" viewBox="-8566.424 -1349.735 69.342 56.345">
  <defs>
    <style>
      .cls-1 {
        fill: #fff;
      }
    </style>
  </defs>
  <path id="Path_2651" data-name="Path 2651" class="cls-1" d="M94.441,40.7a28.382,28.382,0,0,1-8.169,2.237,14.263,14.263,0,0,0,6.259-7.868A28.478,28.478,0,0,1,83.5,38.518,14.237,14.237,0,0,0,59.257,51.5,40.382,40.382,0,0,1,29.929,36.63a14.241,14.241,0,0,0,4.4,18.99,14.125,14.125,0,0,1-6.443-1.783c0,.06,0,.121,0,.18A14.234,14.234,0,0,0,39.3,67.97a14.281,14.281,0,0,1-6.425.246,14.24,14.24,0,0,0,13.289,9.879A28.717,28.717,0,0,1,25.1,83.984a40.24,40.24,0,0,0,21.8,6.392C73.071,90.376,87.38,68.7,87.38,49.9c0-.616-.014-1.231-.041-1.84a28.846,28.846,0,0,0,7.1-7.362Z" transform="translate(-8591.523 -1383.766)"/>
</svg>
