<svg xmlns="http://www.w3.org/2000/svg" viewBox="9704 -272 112.196 112.196">
  <defs>
    <style>
      .cls-1 {
        fill: #fff;
      }
    </style>
  </defs>
  <g id="bitcoin" transform="translate(9704 -272)">
    <circle id="Ellipse_442" data-name="Ellipse 442" class="cls-1" cx="56.098" cy="56.098" r="56.098" transform="translate(0 0)"/>
    <path id="Path_2673" data-name="Path 2673" d="M205.422,146.217a12.568,12.568,0,0,0-9.1-21.241h-.967v-2.9a2.9,2.9,0,1,0-5.8,0v2.9h-3.869v-2.9a2.9,2.9,0,1,0-5.8,0v2.9H175.05a2.9,2.9,0,0,0,0,5.8h.967V167.53h-.967a2.9,2.9,0,0,0,0,5.8h4.836v2.9a2.9,2.9,0,1,0,5.8,0v-2.9h3.869v2.9a2.9,2.9,0,1,0,5.8,0v-2.9h2.9a14.506,14.506,0,0,0,7.167-27.119Zm-9.1-15.437a6.771,6.771,0,1,1,0,13.542h-14.51V130.78H196.32Zm1.934,36.754H181.812v-17.41h16.443a8.705,8.705,0,0,1,0,17.41Z" transform="translate(-134.418 -93.058)"/>
  </g>
</svg>
