<svg xmlns="http://www.w3.org/2000/svg" viewBox="10686 1723.882 824.824 223.006">
  <defs>
    <style>
      .cls-1, .cls-2 {
        fill: #fff;
      }

      .cls-1 {
        fill-rule: evenodd;
      }
    </style>
  </defs>
  <g id="Лого" transform="translate(10686 1723.882)">
    <path id="Path_1" data-name="Path 1" class="cls-1" d="M243.893,125.564q-2.4-2.56-4.992-4.931a102.324,102.324,0,0,0-30.071-18.864Q187.858,93,160.3,93H88.711A13.865,13.865,0,0,0,74.84,106.871v91.74c9.044-7.516,19.469-11.543,30.554-11.61h.4c20.923,0,32.13,10.718,42.03,20.165q1.974,1.894,3.9,3.666c7.2,6.63,14.342,11.788,25.861,11.788,15.747,0,27.572-16.432,41.272-35.442,10.724-14.892,22.872-31.745,39.029-42.433A97.666,97.666,0,0,0,243.893,125.564Z" transform="translate(-74.84 -92.89)"/>
    <path id="Path_2" data-name="Path 2" class="cls-1" d="M265.2,201.4c-.477-1.344-1.008-2.658-1.534-3.972-13.407,9.4-23.942,23.936-34.1,38.058-15.155,21.051-29.466,40.942-51.941,40.942-14.666,0-24.357-6.147-32.344-13.1-2.279-1.98-4.436-4.027-6.514-6.019-9.27-8.867-17.293-16.5-32.931-16.5h-.33c-12.221.079-21.125,6.832-26.441,12.478l-4.2,4.455v84.328a13.865,13.865,0,0,0,13.865,13.859h71.593q25.347,0,46.026-7.981a101.438,101.438,0,0,0,35.375-22.542,99.532,99.532,0,0,0,22.7-35.1Q272.4,269.8,272.4,244.452A127.164,127.164,0,0,0,265.2,201.4Z" transform="translate(-74.848 -133.506)"/>
    <path id="Path_3" data-name="Path 3" class="cls-1" d="M522.361,182.678a40.251,40.251,0,0,0,14.055-9.453,41.731,41.731,0,0,0,8.989-14.7,55.71,55.71,0,0,0,3.147-19.23,56.581,56.581,0,0,0-2.823-18.045,42.052,42.052,0,0,0-8.4-14.763,39.6,39.6,0,0,0-13.914-9.973,48.055,48.055,0,0,0-19.487-3.666H472.29v93.17h31.629a48.518,48.518,0,0,0,18.442-3.343M481.48,100.965h22.445a37.886,37.886,0,0,1,15.093,2.823,30.769,30.769,0,0,1,11.091,7.944A34.862,34.862,0,0,1,537,123.874a48.091,48.091,0,0,1,2.328,15.417,48.792,48.792,0,0,1-2.3,15.277,35.177,35.177,0,0,1-6.758,12.221,31.049,31.049,0,0,1-11.085,8.133,37.062,37.062,0,0,1-15.277,2.958H481.48Z" transform="translate(-229.419 -92.832)"/>
    <path id="Path_4" data-name="Path 4" class="cls-1" d="M625.741,156.873h41.865L679.68,186H689.4L650.679,92.82H642.93l-38.98,93.188h9.844Zm21.015-53.292,18.766,46.069H627.708Z" transform="translate(-280.626 -92.82)"/>
    <path id="Path_5" data-name="Path 5" class="cls-1" d="M693.556,93.188h9.184V8.133h33.206V0h-75.6V8.133h33.206Z" transform="translate(-256.829)"/>
    <path id="Path_6" data-name="Path 6" class="cls-1" d="M859.94,186.008l11.934-29.13h41.877l12.056,29.13h9.71l-38.7-93.188H889.07l-38.98,93.188Zm32.943-82.427,18.772,46.069H873.867Z" transform="translate(-376.356 -92.82)"/>
    <path id="Path_7" data-name="Path 7" class="cls-1" d="M394.66,233.72h26.905v70.872h25.6V233.72h26.771V211.41H394.66Z" transform="translate(-153.494 -82.223)"/>
    <path id="Path_8" data-name="Path 8" class="cls-1" d="M727.255,304.219l-32.387,93.048-19.6-34.116a30.921,30.921,0,0,0,9.82-11.482,33.157,33.157,0,0,0,3.538-15.155,31.164,31.164,0,0,0-2.316-11.751,34.082,34.082,0,0,0-6.5-10.388,32.638,32.638,0,0,0-9.911-7.333,28.244,28.244,0,0,0-12.6-2.823H614.53v93.188h25.6V368.8h9.582l16.407,28.61h54.85l5.5-18.241h24.8l5.64,18.241h26L750.6,304.219Zm-66.607,39.646q-2.041,2.622-4.4,2.628H640.1V326.535h15.491q2.353,0,4.724,2.56c1.577,1.7,2.365,4.18,2.365,7.418s-.685,5.6-2.035,7.333m69.619,18.241,8.659-28.873,8.268,28.873Z" transform="translate(-284.741 -175.038)"/>
    <path id="Path_9" data-name="Path 9" class="cls-1" d="M973.589,317.889a42.1,42.1,0,0,0-14.708-9.973,52.532,52.532,0,0,0-20.343-3.666H902.71v93.188h35.833a53.109,53.109,0,0,0,19.292-3.349,42.646,42.646,0,0,0,14.837-9.447,41.849,41.849,0,0,0,9.52-14.7,52.692,52.692,0,0,0,3.343-19.23,53.325,53.325,0,0,0-3.019-18.045,41.975,41.975,0,0,0-8.922-14.77M958.171,360.42a22.452,22.452,0,0,1-4.064,7.742,18.722,18.722,0,0,1-6.636,5.121,20.844,20.844,0,0,1-8.922,1.833H928.308V326.548h10.235a21.2,21.2,0,0,1,8.787,1.766,18.585,18.585,0,0,1,6.636,4.925,21.843,21.843,0,0,1,4.137,7.614,31.885,31.885,0,0,1,1.442,9.838,32.6,32.6,0,0,1-1.375,9.716" transform="translate(-396.822 -175.051)"/>
    <rect id="Rectangle_3" data-name="Rectangle 3" class="cls-2" width="25.598" height="93.188" transform="translate(599.859 129.187)"/>
    <path id="Path_10" data-name="Path 10" class="cls-1" d="M1107.1,258.793l-37.4-47.383H1049.75v93.182h25.585v-45.8l37.019,45.8H1132.7V211.41h-25.6Z" transform="translate(-408.277 -82.223)"/>
    <path id="Path_11" data-name="Path 11" class="cls-1" d="M1329.43,347.377v18.375h16.144q-8.555,9.166-19.695,9.166a21.2,21.2,0,0,1-8.787-1.772,19.425,19.425,0,0,1-6.759-4.986,23.136,23.136,0,0,1-4.4-7.675,32.151,32.151,0,0,1,0-19.89,24.446,24.446,0,0,1,4.333-7.809,19.554,19.554,0,0,1,6.569-5.121,18.989,18.989,0,0,1,8.39-1.833,22.128,22.128,0,0,1,11.678,3.349,21.387,21.387,0,0,1,8.274,8.86l19.029-14.568a32.709,32.709,0,0,0-6.428-8.463,42.122,42.122,0,0,0-8.867-6.428,42.622,42.622,0,0,0-10.694-4.076,51.9,51.9,0,0,0-12.075-1.375,48.757,48.757,0,0,0-18.84,3.611,47.592,47.592,0,0,0-15.148,9.838,45.438,45.438,0,0,0-13.786,33,53.212,53.212,0,0,0,3.666,20.349,45.837,45.837,0,0,0,9.844,15.093,41.457,41.457,0,0,0,14.446,9.386,47.458,47.458,0,0,0,17.33,3.214,34.653,34.653,0,0,0,22.963-8.4v7.742h21.131V347.377Z" transform="translate(-542.926 -174.614)"/>
  </g>
</svg>
