<svg xmlns="http://www.w3.org/2000/svg" viewBox="9842 -314 112.2 112.196">
  <defs>
    <style>
      .cls-1 {
        fill: #fff;
      }

      .cls-2 {
        fill: #9ec2e5;
      }

      .cls-3 {
        fill: #050505;
      }

      .cls-4 {
        fill: #dadde0;
      }

      .cls-5 {
        fill: #d1d1d1;
      }
    </style>
  </defs>
  <g id="telegram" transform="translate(9842 -314)">
    <path id="Ellipse_441" data-name="Ellipse 441" class="cls-1" d="M56.1,0A56.1,56.1,0,1,1,0,56.1,56.1,56.1,0,0,1,56.1,0Z" transform="translate(0 0)"/>
    <path id="Path_2653" data-name="Path 2653" class="cls-1" d="M278.641,161.486l-24.9-24.861-40.563,49.443,29.207,29.207a56.116,56.116,0,0,0,36.276-52.491Q278.656,162.133,278.641,161.486Z" transform="translate(-166.461 -106.686)"/>
    <path id="Path_2654" data-name="Path 2654" class="cls-1" d="M169.562,132.765a3.022,3.022,0,0,1,4.057,3.434l-10.03,47.942a3.159,3.159,0,0,1-4.96,1.9l-15.141-11.114-7.718,7.88a2.565,2.565,0,0,1-4.276-1.024l-5.568-17.676L111,159.7a2.142,2.142,0,0,1-.174-4.05ZM162.2,143.4a.711.711,0,0,0-.846-1.137l-32.216,19.98a1.464,1.464,0,0,0-.627,1.681l4.393,19.293a.281.281,0,0,0,.548-.053l.982-14.7a1.454,1.454,0,0,1,.484-.937Z" transform="translate(-85.477 -103.507)"/>
    <path id="Path_2655" data-name="Path 2655" class="cls-2" d="M228.985,176.462a.711.711,0,0,1,.846,1.137l-27.282,24.124a1.456,1.456,0,0,0-.484.937l-.982,14.7a.281.281,0,0,1-.548.053l-4.393-19.292a1.464,1.464,0,0,1,.627-1.681Z" transform="translate(-153.109 -137.702)"/>
    <path id="Path_2656" data-name="Path 2656" d="M133.064,183.421a2.52,2.52,0,0,1-1.568-1.636l-5.568-17.676L111,159.7a2.142,2.142,0,0,1-.174-4.05l58.735-22.885a3.012,3.012,0,0,1,3.649,1.194,3.158,3.158,0,0,0-.48-.57l-39.847,32.529v1.424l-.219-.159.219,8.968v7.193a1.421,1.421,0,0,0,.178.068v.007Z" transform="translate(-85.478 -103.507)"/>
    <g id="Group_1296" data-name="Group 1296" transform="translate(47.408 29.882)">
      <path id="Path_2657" data-name="Path 2657" d="M257.142,138.37a3.282,3.282,0,0,1-.064.8l-10.03,47.942a3.159,3.159,0,0,1-4.96,1.9L226.947,177.9l-10.6-7.586V168.89l39.847-32.529a3.149,3.149,0,0,1,.48.57c.027.045.053.087.079.128s.049.091.072.132a1.417,1.417,0,0,1,.064.136c.019.045.042.094.06.144s.034.087.049.136a3.006,3.006,0,0,1,.113.457C257.123,138.166,257.134,138.264,257.142,138.37Z" transform="translate(-216.343 -136.364)"/>
      <path id="Path_2658" data-name="Path 2658" class="cls-3" d="M226.948,298.9l-7.718,7.88c-.064.064-.132.128-.2.185a2.55,2.55,0,0,1-.208.155h0a2.666,2.666,0,0,1-.446.238,1.886,1.886,0,0,1-.234.079,2.558,2.558,0,0,1-1,.091c-.087-.007-.174-.023-.257-.038a.11.11,0,0,1-.034-.007c-.083-.023-.166-.045-.249-.072a.337.337,0,0,1-.079-.03l-.177-7.261v-8.81Z" transform="translate(-216.344 -257.356)"/>
    </g>
    <g id="Group_1297" data-name="Group 1297" transform="translate(48.205 79.486)">
      <path id="Path_2659" data-name="Path 2659" class="cls-4" d="M227.86,362.73a2.6,2.6,0,0,1-.208.159h0C227.724,362.836,227.792,362.787,227.86,362.73Z" transform="translate(-225.971 -362.73)"/>
      <path id="Path_2660" data-name="Path 2660" class="cls-4" d="M227.639,363.437Z" transform="translate(-225.958 -363.282)"/>
      <path id="Path_2661" data-name="Path 2661" class="cls-4" d="M225.6,363.693a2.659,2.659,0,0,0,.446-.238,2.863,2.863,0,0,1-.446.238Z" transform="translate(-224.369 -363.296)"/>
      <path id="Path_2662" data-name="Path 2662" class="cls-4" d="M219.981,364.993a2.56,2.56,0,0,0,1-.091,2.4,2.4,0,0,1-.729.11,2.109,2.109,0,0,1-.223-.011.092.092,0,0,1-.048-.008Z" transform="translate(-219.981 -364.426)"/>
    </g>
    <g id="Group_1298" data-name="Group 1298" transform="translate(48.024 80.03)">
      <path id="Path_2663" data-name="Path 2663" class="cls-1" d="M220.411,365.361a2.118,2.118,0,0,1-.223-.011,2.11,2.11,0,0,0,.223.011Z" transform="translate(-219.961 -365.32)"/>
      <path id="Path_2664" data-name="Path 2664" class="cls-1" d="M219.335,365.235a.1.1,0,0,0,.045.007,1.477,1.477,0,0,1-.227-.03,1.42,1.42,0,0,0,.182.023Z" transform="translate(-219.154 -365.212)"/>
    </g>
    <g id="Group_1299" data-name="Group 1299" transform="translate(47.665 79.936)">
      <path id="Path_2665" data-name="Path 2665" class="cls-4" d="M219.066,365.182a1.5,1.5,0,0,1-.181-.023.433.433,0,0,1-.076-.015C218.892,365.159,218.979,365.174,219.066,365.182Z" transform="translate(-218.526 -365.065)"/>
      <path id="Path_2666" data-name="Path 2666" class="cls-4" d="M217.516,364.782c.083.027.166.049.249.072l-.1-.023a.132.132,0,0,1-.042-.015.579.579,0,0,1-.107-.034Z" transform="translate(-217.516 -364.782)"/>
    </g>
    <g id="Group_1300" data-name="Group 1300" transform="translate(47.601 79.917)">
      <path id="Path_2667" data-name="Path 2667" class="cls-1" d="M218.188,365.006l.1.023A.487.487,0,0,1,218.188,365.006Z" transform="translate(-217.977 -364.938)"/>
      <path id="Path_2668" data-name="Path 2668" class="cls-1" d="M217.287,364.715a.565.565,0,0,0,.106.034.992.992,0,0,1-.17-.053.41.41,0,0,0,.064.019Z" transform="translate(-217.223 -364.696)"/>
    </g>
    <path id="Path_2669" data-name="Path 2669" class="cls-4" d="M217.233,364.675a.417.417,0,0,1-.064-.019h-.015v-.007a.353.353,0,0,0,.079.026Z" transform="translate(-169.568 -284.739)"/>
    <path id="Path_2670" data-name="Path 2670" class="cls-5" d="M216.343,331.511l.178,7.261a1.447,1.447,0,0,1-.178-.068Z" transform="translate(-168.935 -258.866)"/>
    <path id="Path_2671" data-name="Path 2671" class="cls-4" d="M215.562,290.744v8.81l-.219-8.968Z" transform="translate(-168.154 -226.908)"/>
    <path id="Path_2672" data-name="Path 2672" class="cls-1" d="M229.831,177.6l-27.282,24.124a1.456,1.456,0,0,0-.484.937l-.98,14.7a.283.283,0,0,1-.552.053l-4.391-19.294a1.464,1.464,0,0,1,.627-1.681l32.216-19.98a.711.711,0,0,1,.846,1.141Z" transform="translate(-153.108 -137.703)"/>
  </g>
</svg>
