<svg xmlns="http://www.w3.org/2000/svg" viewBox="9965 -314 112.196 112.196">
  <defs>
    <style>
      .cls-1 {
        fill: #fff;
      }
    </style>
  </defs>
  <g id="twitter" transform="translate(9964.999 -314)">
    <circle id="Ellipse_439" data-name="Ellipse 439" class="cls-1" cx="56.098" cy="56.098" r="56.098" transform="translate(0.001 0)"/>
    <g id="Group_1295" data-name="Group 1295">
      <path id="Path_2651" data-name="Path 2651" d="M90.461,40.316a26.753,26.753,0,0,1-7.7,2.109,13.445,13.445,0,0,0,5.9-7.417,26.843,26.843,0,0,1-8.515,3.253A13.42,13.42,0,0,0,57.3,50.493,38.064,38.064,0,0,1,29.652,36.481a13.424,13.424,0,0,0,4.149,17.9A13.314,13.314,0,0,1,27.728,52.7c0,.057,0,.114,0,.17A13.417,13.417,0,0,0,38.485,66.022a13.461,13.461,0,0,1-6.056.232,13.423,13.423,0,0,0,12.526,9.312A27.068,27.068,0,0,1,25.1,81.118a37.929,37.929,0,0,0,20.553,6.025c24.664,0,38.152-20.432,38.152-38.153,0-.581-.013-1.16-.039-1.734a27.191,27.191,0,0,0,6.692-6.94Z"/>
    </g>
  </g>
</svg>
