<svg xmlns="http://www.w3.org/2000/svg" viewBox="761.772 6999 47.633 47.632">
  <defs>
    <style>
      .cls-1 {
        fill: #16cbc6;
      }

      .cls-2 {
        fill: #fff;
      }
    </style>
  </defs>
  <g id="bitcoin" transform="translate(761.772 6999)">
    <ellipse id="Ellipse_442" data-name="Ellipse 442" class="cls-1" cx="23.816" cy="23.816" rx="23.816" ry="23.816" transform="translate(0 0)"/>
    <path id="Path_2673" data-name="Path 2673" class="cls-2" d="M186.276,130.656a5.336,5.336,0,0,0-3.863-9.018H182v-1.231a1.231,1.231,0,1,0-2.462,0v1.231H177.9v-1.231a1.231,1.231,0,1,0-2.462,0v1.231h-2.053a1.231,1.231,0,1,0,0,2.462h.411v15.6h-.411a1.231,1.231,0,0,0,0,2.462h2.053V143.4a1.231,1.231,0,0,0,2.462,0v-1.231h1.643V143.4a1.231,1.231,0,1,0,2.462,0v-1.231h1.231a6.158,6.158,0,0,0,3.043-11.513Zm-3.863-6.554a2.875,2.875,0,1,1,0,5.749h-6.16V124.1h6.159Zm.821,15.6h-6.981v-7.391h6.981a3.7,3.7,0,0,1,0,7.391Z" transform="translate(-156.131 -108.088)"/>
  </g>
</svg>
