<svg xmlns="http://www.w3.org/2000/svg" viewBox="1468.834 6786.144 63.112 91.613">
  <defs>
    <style>
      .cls-1 {
        fill: #fff;
      }
    </style>
  </defs>
  <g id="facebook-placeholder-for-locate-places-on-maps_1_" data-name="facebook-placeholder-for-locate-places-on-maps (1)" transform="translate(1468.834 6786.144)">
    <path id="Facebook_Places" class="cls-1" d="M128.526,22.8a28.545,28.545,0,0,0-1.478-3.665C121.186,5.049,108.377,0,98.035,0,84.19,0,68.941,9.284,66.905,28.42v3.91c0,.163.056,1.629.136,2.362,1.141,9.12,8.337,18.812,13.712,27.932,5.782,9.771,11.782,19.383,17.726,28.99,3.665-6.27,7.317-12.622,10.9-18.73.976-1.792,2.109-3.584,3.087-5.294.651-1.139,1.9-2.278,2.464-3.338C120.71,53.665,130.017,43,130.017,32.492V28.176A32.507,32.507,0,0,0,128.526,22.8ZM98.288,42.428c-4.07,0-8.524-2.035-10.723-7.655a10.619,10.619,0,0,1-.3-2.852V29.4c0-7.164,6.083-10.422,11.375-10.422A11.533,11.533,0,0,1,110.193,30.7,11.83,11.83,0,0,1,98.288,42.428Z" transform="translate(-66.905)"/>
  </g>
</svg>
