<svg xmlns="http://www.w3.org/2000/svg" xmlns:xlink="http://www.w3.org/1999/xlink" viewBox="1153.634 6551.104 682.966 407.896">
  <defs>
    <style>
      .cls-1 {
        fill: url(#linear-gradient);
      }

      .cls-2, .cls-3, .cls-4 {
        fill: #fff;
      }

      .cls-2 {
        font-size: 44px;
      }

      .cls-2, .cls-3 {
        font-family: SegoeUI, Segoe UI;
      }

      .cls-3 {
        font-size: 33px;
      }

      .cls-5 {
        fill: none;
        stroke: #fff;
        stroke-width: 8px;
      }

      .cls-6 {
        filter: url(#rectangle-2);
      }
    </style>
    <linearGradient id="linear-gradient" x1="0.5" x2="0.5" y2="1" gradientUnits="objectBoundingBox">
      <stop offset="0" stop-color="#a4e375"/>
      <stop offset="1" stop-color="#2fb9ae"/>
    </linearGradient>
    <filter id="rectangle-2" x="1153.634" y="6551.104" width="682.966" height="407.896" filterUnits="userSpaceOnUse">
      <feOffset dy="3" input="SourceAlpha"/>
      <feGaussianBlur stdDeviation="3" result="blur"/>
      <feFlood flood-color="#1c7fff" flood-opacity="0.341"/>
      <feComposite operator="in" in2="blur"/>
      <feComposite in="SourceGraphic"/>
    </filter>
  </defs>
  <g id="Group_590" data-name="Group 590" transform="translate(176 6059)">
    <g id="Group_588" data-name="Group 588" transform="translate(986.634 498.104)">
      <g class="cls-6" transform="matrix(1, 0, 0, 1, -1162.63, -6557.1)">
        <rect id="rectangle-2-2" data-name="rectangle-2" class="cls-1" width="664.966" height="389.896" rx="5" transform="translate(1162.63 6557.1)"/>
      </g>
    </g>
    <text id="TOKEN_SALE_Round_А" data-name="TOKEN SALE
Round А" class="cls-2" transform="translate(1324 575)"><tspan x="-120.828" y="0">TOKEN SALE</tspan><tspan x="-83.478" y="58">Round А</tspan></text>
    <text id="_18_December_2017" data-name="18 December 2017" class="cls-3" transform="translate(1324 706)"><tspan x="-137.132" y="0">18 December 2017</tspan></text>
    <g id="facebook-placeholder-for-locate-places-on-maps_1_" data-name="facebook-placeholder-for-locate-places-on-maps (1)" transform="translate(1292.834 727.144)">
      <path id="Facebook_Places" class="cls-4" d="M128.526,22.8a28.545,28.545,0,0,0-1.478-3.665C121.186,5.049,108.377,0,98.035,0,84.19,0,68.941,9.284,66.905,28.42v3.91c0,.163.056,1.629.136,2.362,1.141,9.12,8.337,18.812,13.712,27.932,5.782,9.771,11.782,19.383,17.726,28.99,3.665-6.27,7.317-12.622,10.9-18.73.976-1.792,2.109-3.584,3.087-5.294.651-1.139,1.9-2.278,2.464-3.338C120.71,53.665,130.017,43,130.017,32.492V28.176A32.507,32.507,0,0,0,128.526,22.8ZM98.288,42.428c-4.07,0-8.524-2.035-10.723-7.655a10.619,10.619,0,0,1-.3-2.852V29.4c0-7.164,6.083-10.422,11.375-10.422A11.533,11.533,0,0,1,110.193,30.7,11.83,11.83,0,0,1,98.288,42.428Z" transform="translate(-66.905)"/>
    </g>
    <path id="Path_1117" data-name="Path 1117" class="cls-5" d="M0,0H664.966" transform="translate(986.634 819.23)"/>
  </g>
</svg>
