<svg xmlns="http://www.w3.org/2000/svg" viewBox="851.812 6999 47.634 47.632">
  <defs>
    <style>
      .cls-1 {
        fill: #16cbc6;
      }

      .cls-2 {
        fill: #fff;
      }

      .cls-3 {
        fill: #9ec2e5;
      }

      .cls-4 {
        fill: #dadde0;
      }

      .cls-5 {
        fill: #d1d1d1;
      }
    </style>
  </defs>
  <g id="telegram" transform="translate(851.812 6999)">
    <path id="Ellipse_441" data-name="Ellipse 441" class="cls-1" d="M23.816,0A23.816,23.816,0,1,1,0,23.816,23.816,23.816,0,0,1,23.816,0Z" transform="translate(0 0)"/>
    <path id="Path_2653" data-name="Path 2653" class="cls-1" d="M240.97,147.18,230.4,136.625l-17.221,20.991,12.4,12.4a23.824,23.824,0,0,0,15.4-22.285Q240.977,147.454,240.97,147.18Z" transform="translate(-193.344 -123.914)"/>
    <path id="Path_2654" data-name="Path 2654" class="cls-2" d="M134.978,132.646A1.283,1.283,0,0,1,136.7,134.1l-4.258,20.354a1.341,1.341,0,0,1-2.106.807l-6.428-4.718-3.277,3.345a1.089,1.089,0,0,1-1.815-.435l-2.364-7.5-6.337-1.871a.909.909,0,0,1-.074-1.719Zm-3.126,4.515a.3.3,0,0,0-.359-.483l-13.677,8.482a.622.622,0,0,0-.266.714l1.865,8.191a.119.119,0,0,0,.233-.022l.417-6.241a.617.617,0,0,1,.205-.4Z" transform="translate(-99.28 -120.224)"/>
    <path id="Path_2655" data-name="Path 2655" class="cls-3" d="M210.047,176.4a.3.3,0,0,1,.359.483l-11.583,10.242a.618.618,0,0,0-.205.4l-.417,6.241a.119.119,0,0,1-.233.023L196.1,185.6a.622.622,0,0,1,.266-.714Z" transform="translate(-177.834 -159.945)"/>
    <path id="Path_2656" data-name="Path 2656" class="cls-2" d="M119.483,154.15a1.07,1.07,0,0,1-.666-.695l-2.364-7.5-6.338-1.872a.909.909,0,0,1-.074-1.719l24.936-9.716a1.279,1.279,0,0,1,1.549.507,1.341,1.341,0,0,0-.2-.242l-16.917,13.81v.6l-.093-.068.093,3.807v3.054a.607.607,0,0,0,.076.029v0Z" transform="translate(-99.28 -120.223)"/>
    <g id="Group_1296" data-name="Group 1296" transform="translate(20.128 12.685)">
      <path id="Path_2657" data-name="Path 2657" class="cls-2" d="M233.666,137.214a1.394,1.394,0,0,1-.027.34l-4.258,20.354a1.341,1.341,0,0,1-2.106.807L220.847,154l-4.5-3.221v-.6l16.917-13.81a1.336,1.336,0,0,1,.2.242l.034.054c.011.017.021.039.031.056a.6.6,0,0,1,.027.058c.008.019.018.04.025.061s.014.037.021.058a1.276,1.276,0,0,1,.048.194C233.658,137.127,233.663,137.169,233.666,137.214Z" transform="translate(-216.346 -136.361)"/>
      <path id="Path_2658" data-name="Path 2658" class="cls-2" d="M220.847,294.532l-3.277,3.345c-.027.027-.056.054-.085.079a1.1,1.1,0,0,1-.088.066h0a1.133,1.133,0,0,1-.189.1.8.8,0,0,1-.1.034,1.085,1.085,0,0,1-.425.039c-.037,0-.074-.01-.109-.016l-.014,0c-.035-.01-.07-.019-.106-.031a.143.143,0,0,1-.034-.013l-.075-3.083v-3.74Z" transform="translate(-216.346 -276.894)"/>
    </g>
    <g id="Group_1297" data-name="Group 1297" transform="translate(20.465 33.746)">
      <path id="Path_2659" data-name="Path 2659" class="cls-4" d="M227.74,362.73a1.1,1.1,0,0,1-.088.067h0C227.683,362.775,227.711,362.754,227.74,362.73Z" transform="translate(-226.938 -362.73)"/>
      <path id="Path_2660" data-name="Path 2660" class="cls-4" d="M227.639,363.437Z" transform="translate(-226.925 -363.371)"/>
      <path id="Path_2661" data-name="Path 2661" class="cls-4" d="M225.6,363.556a1.128,1.128,0,0,0,.189-.1A1.215,1.215,0,0,1,225.6,363.556Z" transform="translate(-225.077 -363.387)"/>
      <path id="Path_2662" data-name="Path 2662" class="cls-4" d="M219.981,364.941a1.087,1.087,0,0,0,.425-.039,1.019,1.019,0,0,1-.31.047.892.892,0,0,1-.095,0,.039.039,0,0,1-.02,0Z" transform="translate(-219.981 -364.7)"/>
    </g>
    <g id="Group_1298" data-name="Group 1298" transform="translate(20.388 33.976)">
      <path id="Path_2663" data-name="Path 2663" class="cls-2" d="M220.283,365.355a.908.908,0,0,1-.095,0,.9.9,0,0,0,.095,0Z" transform="translate(-220.091 -365.337)"/>
      <path id="Path_2664" data-name="Path 2664" class="cls-2" d="M219.23,365.222a.042.042,0,0,0,.019,0,.625.625,0,0,1-.1-.013A.6.6,0,0,0,219.23,365.222Z" transform="translate(-219.153 -365.212)"/>
    </g>
    <g id="Group_1299" data-name="Group 1299" transform="translate(20.236 33.937)">
      <path id="Path_2665" data-name="Path 2665" class="cls-4" d="M218.918,365.16a.637.637,0,0,1-.077-.01l-.032-.006C218.844,365.15,218.881,365.157,218.918,365.16Z" transform="translate(-218.689 -365.11)"/>
      <path id="Path_2666" data-name="Path 2666" class="cls-4" d="M217.516,364.782c.035.011.07.021.106.031l-.042-.01a.056.056,0,0,1-.018-.006A.245.245,0,0,1,217.516,364.782Z" transform="translate(-217.516 -364.782)"/>
    </g>
    <g id="Group_1300" data-name="Group 1300" transform="translate(20.209 33.929)">
      <path id="Path_2667" data-name="Path 2667" class="cls-2" d="M218.188,365.006l.042.01A.205.205,0,0,1,218.188,365.006Z" transform="translate(-218.098 -364.977)"/>
      <path id="Path_2668" data-name="Path 2668" class="cls-2" d="M217.25,364.7a.24.24,0,0,0,.045.014.42.42,0,0,1-.072-.022Z" transform="translate(-217.223 -364.696)"/>
    </g>
    <path id="Path_2669" data-name="Path 2669" class="cls-4" d="M217.188,364.66l-.027-.008h-.006v0a.149.149,0,0,0,.034.011Z" transform="translate(-196.951 -330.723)"/>
    <path id="Path_2670" data-name="Path 2670" class="cls-5" d="M216.343,331.511l.076,3.083a.612.612,0,0,1-.076-.029Z" transform="translate(-196.216 -300.67)"/>
    <path id="Path_2671" data-name="Path 2671" class="cls-4" d="M215.436,290.653v3.74l-.093-3.807Z" transform="translate(-195.309 -263.552)"/>
    <path id="Path_2672" data-name="Path 2672" class="cls-2" d="M210.406,176.874l-11.583,10.242a.618.618,0,0,0-.205.4l-.416,6.241a.12.12,0,0,1-.234.022l-1.864-8.191a.622.622,0,0,1,.266-.714l13.677-8.482a.3.3,0,0,1,.359.484Z" transform="translate(-177.834 -159.936)"/>
  </g>
</svg>
