<svg xmlns="http://www.w3.org/2000/svg" viewBox="941.853 6999 47.633 47.632">
  <defs>
    <style>
      .cls-1 {
        fill: #16cbc6;
      }

      .cls-2 {
        fill: #fff;
      }
    </style>
  </defs>
  <g id="twitter" transform="translate(941.853 6999)">
    <ellipse id="Ellipse_439" data-name="Ellipse 439" class="cls-1" cx="23.816" cy="23.816" rx="23.816" ry="23.816" transform="translate(0 0)"/>
    <g id="Group_1295" data-name="Group 1295" transform="translate(10.656 14.448)">
      <path id="Path_2651" data-name="Path 2651" class="cls-2" d="M52.849,36.7a11.358,11.358,0,0,1-3.269.9,5.708,5.708,0,0,0,2.5-3.149,11.4,11.4,0,0,1-3.615,1.381,5.7,5.7,0,0,0-9.7,5.193,16.16,16.16,0,0,1-11.736-5.949,5.7,5.7,0,0,0,1.761,7.6,5.653,5.653,0,0,1-2.578-.714c0,.024,0,.048,0,.072a5.7,5.7,0,0,0,4.567,5.584,5.715,5.715,0,0,1-2.571.1,5.7,5.7,0,0,0,5.318,3.953A11.492,11.492,0,0,1,25.1,54.022a16.1,16.1,0,0,0,8.726,2.558c10.471,0,16.2-8.674,16.2-16.2,0-.247-.006-.492-.017-.736A11.544,11.544,0,0,0,52.848,36.7Z" transform="translate(-25.1 -34.031)"/>
    </g>
  </g>
</svg>
