<svg xmlns="http://www.w3.org/2000/svg" xmlns:xlink="http://www.w3.org/1999/xlink" viewBox="-3048.006 -5380.741 74.006 74.006">
  <defs>
    <style>
      .cls-1 {
        fill: #a4e375;
      }

      .cls-2 {
        clip-path: url(#clip-path);
      }

      .cls-3 {
        fill: #ebd851;
      }
    </style>
    <clipPath id="clip-path">
      <rect id="Rectangle-path" class="cls-1" width="52.982" height="52.982" rx="5" transform="translate(317.506 929.771)"/>
    </clipPath>
  </defs>
  <g id="Mask_Group_5" data-name="Mask Group 5" class="cls-2" transform="matrix(0.809, -0.588, 0.588, 0.809, -3851.379, -5915.174)">
    <g id="bitcoin_bcc" data-name="bitcoin bcc" transform="translate(317.506 929.771)">
      <path id="Path_133" data-name="Path 133" class="cls-3" d="M31.7,28.554a10.468,10.468,0,0,0-3.59-.825c-1.62-.107-3.7,0-3.7,0v7.012s2.169.046,3.621-.061a10.381,10.381,0,0,0,3.7-.886,2.893,2.893,0,0,0-.031-5.24Z"/>
      <path id="Path_134" data-name="Path 134" class="cls-3" d="M27.133,24.474a7.968,7.968,0,0,0,3.376-.825,2.56,2.56,0,0,0,1.406-2.49,2.827,2.827,0,0,0-2.169-2.613,10.4,10.4,0,0,0-3.27-.458c-1.024-.015-2.063.077-2.063.077v6.309S25.941,24.52,27.133,24.474Z"/>
      <path id="Path_135" data-name="Path 135" class="cls-3" d="M26.491,0A26.491,26.491,0,1,0,52.982,26.491,26.491,26.491,0,0,0,26.491,0ZM37.277,36.62a10.872,10.872,0,0,1-5.011,1.742c-.46.06-1.248.124-2.093.174v5.311H26.9V38.621h-2.49v5.225H21.144V38.621H14.713l.672-3.927H17.34c.657,0,.932-.061,1.207-.32a1.326,1.326,0,0,0,.336-.978V19.868c0-.847-.069-1.077-.459-1.512a2.7,2.7,0,0,0-1.822-.493h-1.89V14.468h6.432V9.228h3.269v5.24H26.9V9.228h3.27v5.3a10.33,10.33,0,0,1,5.836,1.786A5.46,5.46,0,0,1,37.9,21.083a5.906,5.906,0,0,1-.871,2.612,7.363,7.363,0,0,1-1.894,1.559,7.918,7.918,0,0,1,2.7,1.176,5.227,5.227,0,0,1,1.893,4.492C39.691,33.091,39.248,35.245,37.277,36.62Z"/>
    </g>
  </g>
</svg>
