<?xml version="1.0" encoding="UTF-8" standalone="no"?>
<!-- Generator: Adobe Illustrator 19.0.0, SVG Export Plug-In . SVG Version: 6.00 Build 0)  -->

<svg
   xmlns:dc="http://purl.org/dc/elements/1.1/"
   xmlns:cc="http://creativecommons.org/ns#"
   xmlns:rdf="http://www.w3.org/1999/02/22-rdf-syntax-ns#"
   xmlns:svg="http://www.w3.org/2000/svg"
   xmlns="http://www.w3.org/2000/svg"
   xmlns:sodipodi="http://sodipodi.sourceforge.net/DTD/sodipodi-0.dtd"
   xmlns:inkscape="http://www.inkscape.org/namespaces/inkscape"
   version="1.1"
   id="Layer_1"
   x="0px"
   y="0px"
   viewBox="0 0 291.764 291.764"
   style="enable-background:new 0 0 291.764 291.764;"
   xml:space="preserve"
   sodipodi:docname="bitcointalk.svg"
   inkscape:version="0.92.2 (5c3e80d, 2017-08-06)"
   inkscape:export-filename="C:\Users\Admin\Desktop\icons\bitcointalk.png"
   inkscape:export-xdpi="25.917706"
   inkscape:export-ydpi="25.917706"><metadata
     id="metadata899"><rdf:RDF><cc:Work
         rdf:about=""><dc:format>image/svg+xml</dc:format><dc:type
           rdf:resource="http://purl.org/dc/dcmitype/StillImage" /></cc:Work></rdf:RDF></metadata><defs
     id="defs897" /><sodipodi:namedview
     pagecolor="#ffffff"
     bordercolor="#666666"
     borderopacity="1"
     objecttolerance="10"
     gridtolerance="10"
     guidetolerance="10"
     inkscape:pageopacity="0"
     inkscape:pageshadow="2"
     inkscape:window-width="1857"
     inkscape:window-height="1057"
     id="namedview895"
     showgrid="false"
     inkscape:zoom="1.5252053"
     inkscape:cx="17.382136"
     inkscape:cy="100.88094"
     inkscape:window-x="-8"
     inkscape:window-y="-8"
     inkscape:window-maximized="1"
     inkscape:current-layer="Layer_1" /><path
     inkscape:connector-curvature="0"
     id="path860"
     d="m 145.882,27.399 c -65.465,0 -118.529,53.065 -118.529,118.529 0,65.464 53.065,118.529 118.529,118.529 65.464,0 118.529,-53.065 118.529,-118.529 0,-65.464 -53.064,-118.529 -118.529,-118.529 z m 0,218.832 c -55.39,0 -100.294,-44.914 -100.294,-100.294 0,-55.39 44.904,-100.294 100.294,-100.294 55.39,0 100.294,44.904 100.294,100.294 0,55.381 -44.904,100.294 -100.294,100.294 z M 174.63,141.187 c 6.738,-3.483 10.969,-9.601 9.984,-19.804 -1.331,-13.941 -14.369,-18.618 -29.395,-19.949 L 155.21,82.105 h -9.355 v 18.828 l -9.3,0.128 V 82.104 h -9.063 v 19.329 c -2.516,0.055 -8.698,0.109 -11.124,0.109 v -0.064 l -16.056,-0.009 v 12.573 c 0,0 12.008,-0.164 11.88,0 4.714,0 6.255,2.772 6.683,5.161 l 0.009,22.028 1.231,0.082 h -1.231 v 30.863 c -0.201,1.504 -1.076,3.902 -4.367,3.911 0.146,0.137 -11.889,0 -11.889,0 l -2.316,14.05 h 15.144 l 12.017,0.073 0.009,19.566 h 8.78 l -0.009,-19.357 c 3.209,0.073 6.282,0.109 9.309,0.1 v 19.256 h 10.212 v -19.53 c 19.566,-1.131 33.836,-6.118 35.541,-24.709 1.386,-14.976 -5.579,-21.65 -16.685,-24.349 z m -38.932,-26.296 c 6.574,0 27.216,-2.115 27.216,11.762 0,13.294 -20.642,11.753 -27.216,11.753 z m 0,61.271 V 150.25 c 7.896,0 32.632,-2.289 32.632,12.956 0,14.625 -24.736,12.956 -32.632,12.956 z"
     style="fill:#f4b459;fill-opacity:1" /><g
     id="g864" /><g
     id="g866" /><g
     id="g868" /><g
     id="g870" /><g
     id="g872" /><g
     id="g874" /><g
     id="g876" /><g
     id="g878" /><g
     id="g880" /><g
     id="g882" /><g
     id="g884" /><g
     id="g886" /><g
     id="g888" /><g
     id="g890" /><g
     id="g892" /></svg>