<svg id="bitcoin-logo_4_" data-name="bitcoin-logo (4)" xmlns="http://www.w3.org/2000/svg" viewBox="0 0 27.39 37.906">
  <defs>
    <style>
      .cls-1 {
        fill: #fd547f;
      }
    </style>
  </defs>
  <path id="Path_11530" data-name="Path 11530" class="cls-1" d="M92.2,19.886a6.84,6.84,0,0,0-3.987-2.346q3.394-1.731,2.984-5.878a5.808,5.808,0,0,0-.832-2.607,5.219,5.219,0,0,0-1.88-1.777,10.347,10.347,0,0,0-2.574-1.025,20.31,20.31,0,0,0-3.189-.512V0H79.219V5.581q-.911,0-2.779.046V0H72.932V5.741q-.752.023-2.21.023l-4.829-.023V9.477h2.528a1.81,1.81,0,0,1,2.027,1.549v6.538a2.315,2.315,0,0,1,.365.023h-.365v9.157a1.217,1.217,0,0,1-1.321,1.162H66.6l-.706,4.169h4.556q.433,0,1.253.011t1.23.011v5.809h3.509V32.165q.956.023,2.779.023v5.718h3.508V32.1a27.273,27.273,0,0,0,3.314-.342,13.489,13.489,0,0,0,2.768-.786,7.469,7.469,0,0,0,2.209-1.333,6.289,6.289,0,0,0,1.47-2.027,8.619,8.619,0,0,0,.74-2.848A6.748,6.748,0,0,0,92.2,19.886Zm-15.7-10.16q.16,0,.9-.011t1.23-.023q.49-.011,1.322.057a12.569,12.569,0,0,1,1.4.182,7.8,7.8,0,0,1,1.253.376,3.4,3.4,0,0,1,1.093.638,3.164,3.164,0,0,1,.695.957,2.987,2.987,0,0,1,.285,1.332,3.169,3.169,0,0,1-.2,1.162,2.19,2.19,0,0,1-.615.877,6.231,6.231,0,0,1-.843.615,3.86,3.86,0,0,1-1.1.421q-.672.16-1.173.251a9.6,9.6,0,0,1-1.253.125q-.752.034-1.139.046t-1.059,0q-.672-.011-.786-.011V9.726h0Zm9.579,15.513a3.238,3.238,0,0,1-.558.912,3.164,3.164,0,0,1-.9.683,7.718,7.718,0,0,1-1.082.478,8.709,8.709,0,0,1-1.264.319q-.741.137-1.3.194t-1.332.091q-.774.034-1.207.034t-1.094-.012q-.661-.011-.843-.011v-7.7q.182,0,1.082-.023t1.469-.022q.569,0,1.572.068a13.432,13.432,0,0,1,1.686.2,11.083,11.083,0,0,1,1.492.422,4.327,4.327,0,0,1,1.31.695,3.419,3.419,0,0,1,.843,1.048,3.254,3.254,0,0,1,.125,2.62Z" transform="translate(-65.893)"/>
</svg>
