<svg xmlns="http://www.w3.org/2000/svg" width="200" height="54.08" viewBox="0 0 200 54.08">
                              <style>
                                  .st0,
                                  .st1 {
                                      fill-rule: evenodd;
                                      clip-rule: evenodd;
                                      fill: #75e036
                                  }

                                  .st1 {
                                      fill: #006d39
                                  }
                              </style>
                              <path class="st0" d="M40.992 7.923a22.774 22.774 0 0 0-1.211-1.196c-2.048-1.873-4.478-3.398-7.292-4.574C29.099.739 25.177.028 20.724.028H3.363A3.361 3.361 0 0 0 .001 3.39v22.245c2.193-1.822 4.72-2.799 7.409-2.816h.097c5.073 0 7.791 2.599 10.191 4.892.319.307.634.605.946.893 1.745 1.608 3.477 2.857 6.27 2.857 3.818 0 6.686-3.985 10.007-8.599 2.6-3.61 5.546-7.697 9.463-10.288a23.662 23.662 0 0 0-3.392-4.651z"></path>
                              <path class="st1" d="M46.154 16.463c-.116-.326-.244-.645-.371-.963-3.251 2.281-5.805 5.804-8.27 9.228-3.674 5.105-7.145 9.926-12.599 9.926-3.557 0-5.906-1.491-7.843-3.175a44.356 44.356 0 0 1-1.58-1.46c-2.248-2.15-4.193-4.008-7.985-4.008H7.43c-2.963.019-5.122 1.656-6.412 3.026L0 30.118v20.446a3.362 3.362 0 0 0 3.362 3.361h17.362c4.097 0 7.819-.646 11.16-1.935 3.339-1.29 6.199-3.112 8.577-5.465 2.379-2.354 4.213-5.188 5.503-8.503C47.254 34.707 47.9 31 47.9 26.901c.001-3.694-.581-7.174-1.746-10.438zM71.031 21.785c1.326-.543 2.46-1.305 3.405-2.292.944-.986 1.671-2.175 2.18-3.564.508-1.39.764-2.944.764-4.663 0-1.548-.228-3.008-.685-4.376-.455-1.368-1.135-2.561-2.035-3.58-.901-1.018-2.027-1.825-3.374-2.418C69.938.297 68.363 0 66.559 0H58.89v22.595h7.669c1.656 0 3.146-.27 4.472-.81M61.117 1.973h5.442c1.379 0 2.6.229 3.659.685a7.465 7.465 0 0 1 2.69 1.926c.732.827 1.288 1.809 1.671 2.943.382 1.135.573 2.381.573 3.739 0 1.337-.185 2.572-.558 3.708-.37 1.135-.917 2.121-1.639 2.959-.721.839-1.617 1.495-2.688 1.973-1.073.479-2.308.718-3.708.718h-5.442V1.973zM83.681 15.532h10.151l2.928 7.064h2.356L89.728 0H87.85l-9.452 22.595h2.387l2.896-7.063zm5.092-12.923l4.55 11.17h-9.165l4.615-11.17zM105.895 22.595h2.228V1.973h8.051V0H97.843v1.973h8.052zM117.256 22.595l2.894-7.064h10.154l2.927 7.064h2.355L126.198 0h-1.878l-9.451 22.595h2.387zm7.988-19.986l4.551 11.17h-9.166l4.615-11.17zM58.477 36.735h6.524V53.92h6.206V36.735h6.492v-5.411H58.477zM107.294 31.324l-7.848 22.561-4.752-8.272a7.495 7.495 0 0 0 2.387-2.784 8.038 8.038 0 0 0 .858-3.675 7.54 7.54 0 0 0-.572-2.848 8.264 8.264 0 0 0-1.576-2.514 7.92 7.92 0 0 0-2.403-1.783c-.932-.457-1.951-.685-3.055-.685H79.958v22.595h6.207v-6.937h2.323l3.978 6.937h13.3l1.337-4.423h6.014l1.367 4.423h6.304l-7.83-22.595h-5.664zm-16.148 9.612c-.33.424-.686.636-1.067.636h-3.913v-4.838h3.756c.381 0 .763.206 1.145.621.382.412.573 1.014.573 1.798-.001.765-.167 1.358-.494 1.783m16.88 4.423l2.1-7.001 2.005 7.001h-4.105zM139.852 34.634c-.957-1.018-2.143-1.824-3.566-2.418-1.421-.595-3.065-.892-4.932-.892h-8.689V53.92h8.689c1.719 0 3.277-.27 4.677-.812 1.402-.542 2.601-1.304 3.598-2.291.997-.988 1.765-2.175 2.308-3.565.541-1.391.811-2.945.811-4.663 0-1.548-.244-3.006-.732-4.375a10.22 10.22 0 0 0-2.164-3.58m-3.741 10.312a5.45 5.45 0 0 1-.986 1.877 4.54 4.54 0 0 1-1.609 1.241c-.635.297-1.358.446-2.163.446h-2.482V36.735h2.482c.786 0 1.495.143 2.13.429.64.288 1.174.685 1.609 1.195a5.3 5.3 0 0 1 1.003 1.846c.233.721.35 1.517.35 2.386 0 .848-.11 1.633-.334 2.355M145.451 31.324h6.207V53.92h-6.207zM169.447 42.813l-9.069-11.489h-4.837V53.92h6.205V42.813l8.975 11.107h4.933V31.324h-6.207zM190.708 41.89v4.456h3.915c-1.381 1.485-2.971 2.227-4.776 2.227-.785 0-1.493-.144-2.131-.43a4.712 4.712 0 0 1-1.639-1.209 5.629 5.629 0 0 1-1.067-1.861c-.255-.722-.382-1.529-.382-2.419 0-.87.127-1.671.382-2.403a5.922 5.922 0 0 1 1.051-1.893 4.75 4.75 0 0 1 1.593-1.242 4.61 4.61 0 0 1 2.034-.446c.999 0 1.94.271 2.831.812.893.542 1.562 1.258 2.006 2.149l4.615-3.533a7.95 7.95 0 0 0-1.558-2.053 10.333 10.333 0 0 0-4.742-2.546 12.56 12.56 0 0 0-2.927-.333c-1.635 0-3.156.291-4.568.875-1.41.583-2.637 1.378-3.674 2.385a11.037 11.037 0 0 0-2.452 3.565c-.593 1.369-.891 2.849-.891 4.439 0 1.845.298 3.49.891 4.933.595 1.442 1.392 2.663 2.386 3.66 1 .998 2.164 1.755 3.502 2.276 1.338.519 2.737.78 4.202.78 2.1 0 3.955-.68 5.569-2.037v1.877H200V41.89h-9.292z"></path>
                          </svg>