<svg xmlns="http://www.w3.org/2000/svg" viewBox="0 0 19.641 37.906">
  <defs>
    <style>
      .cls-1 {
        fill: #fd547f;
      }
    </style>
  </defs>
  <g id="Group_3458" data-name="Group 3458" transform="translate(-11.973 -5.471)">
    <g id="dollar-symbol_1_" data-name="dollar-symbol (1)" transform="translate(11.973 5.471)">
      <path id="Path_11454" data-name="Path 11454" class="cls-1" d="M131.744,17.218a45.635,45.635,0,0,0-4.635-2.1,10.406,10.406,0,0,1-2.544-1.425,2.213,2.213,0,0,1,.548-3.938,4.466,4.466,0,0,1,1.558-.321,11.825,11.825,0,0,1,5.856,1.159c.924.446,1.229.305,1.542-.658.329-1.018.6-2.051.908-3.077a1.075,1.075,0,0,0-.7-1.433,14.887,14.887,0,0,0-3.7-1.1c-1.675-.258-1.675-.266-1.683-1.949C128.894,0,128.894,0,126.514,0c-.344,0-.689-.008-1.033,0-1.112.031-1.3.227-1.331,1.347-.016.5,0,1-.008,1.511-.008,1.487-.016,1.464-1.44,1.981-3.445,1.253-5.574,3.6-5.8,7.359-.2,3.327,1.534,5.574,4.267,7.21a47.17,47.17,0,0,0,5.331,2.4,7.92,7.92,0,0,1,1.942,1.143,2.662,2.662,0,0,1-.634,4.666,6.385,6.385,0,0,1-3.421.446,15.27,15.27,0,0,1-5.214-1.558c-.963-.5-1.245-.368-1.574.673-.282.9-.532,1.808-.783,2.717-.337,1.221-.211,1.511.955,2.082a16.649,16.649,0,0,0,4.7,1.347c1.268.2,1.307.258,1.323,1.574.008.595.008,1.2.016,1.793a1.065,1.065,0,0,0,1.143,1.206c.877.016,1.761.016,2.638-.008a1,1,0,0,0,1.088-1.135c0-.814.039-1.636.008-2.45a1.294,1.294,0,0,1,1.12-1.472,8.848,8.848,0,0,0,4.611-2.959A8.32,8.32,0,0,0,131.744,17.218Z" transform="translate(-116.652 0)"/>
    </g>
  </g>
</svg>
