<?xml version="1.0" encoding="UTF-8"?>
<svg width="108px" height="74px" viewBox="0 0 108 74" version="1.1" xmlns="http://www.w3.org/2000/svg" xmlns:xlink="http://www.w3.org/1999/xlink">
    <!-- Generator: Sketch 48.2 (47327) - http://www.bohemiancoding.com/sketch -->
    <title>logo_dark@2x</title>
    <desc>Created with Sketch.</desc>
    <defs></defs>
    <g id="Page-1" stroke="none" stroke-width="1" fill="none" fill-rule="evenodd">
        <g id="logo_dark">
            <g id="Group-10-Copy">
                <path d="M10.5465,69.931 C10.6785007,69.931 10.7924995,69.9819995 10.8885,70.084 L11.8425,71.119 C11.3144974,71.7730033 10.6650039,72.2739983 9.894,72.622 C9.12299614,72.9700017 8.1975054,73.144 7.1175,73.144 C6.15149517,73.144 5.28300386,72.9790017 4.512,72.649 C3.74099615,72.3189984 3.08250273,71.8600029 2.5365,71.272 C1.99049727,70.6839971 1.57200145,69.9820041 1.281,69.166 C0.989998545,68.3499959 0.8445,67.4590048 0.8445,66.493 C0.8445,65.5149951 1.00649838,64.6195041 1.3305,63.8065 C1.65450162,62.9934959 2.11049706,62.2930029 2.6985,61.705 C3.28650294,61.1169971 3.9899959,60.6595016 4.809,60.3325 C5.62800409,60.0054984 6.53249505,59.842 7.5225,59.842 C8.48850483,59.842 9.33299639,59.9964985 10.056,60.3055 C10.7790036,60.6145015 11.3984974,61.0239974 11.9145,61.534 L11.1045,62.659 C11.0564998,62.7310004 10.9950004,62.7939997 10.92,62.848 C10.8449996,62.9020003 10.7415007,62.929 10.6095,62.929 C10.4714993,62.929 10.3305007,62.8750005 10.1865,62.767 C10.0424993,62.6589995 9.85950111,62.5420006 9.6375,62.416 C9.41549889,62.2899994 9.1350017,62.1730005 8.796,62.065 C8.4569983,61.9569995 8.02650261,61.903 7.5045,61.903 C6.89249694,61.903 6.33000256,62.0094989 5.817,62.2225 C5.30399744,62.4355011 4.86300185,62.739998 4.494,63.136 C4.12499815,63.532002 3.83700103,64.0134972 3.63,64.5805 C3.42299897,65.1475028 3.3195,65.7849965 3.3195,66.493 C3.3195,67.2250037 3.42299897,67.8759972 3.63,68.446 C3.83700103,69.0160029 4.11749823,69.495998 4.4715,69.886 C4.82550177,70.2760019 5.2424976,70.574499 5.7225,70.7815 C6.2025024,70.988501 6.71849724,71.092 7.2705,71.092 C7.60050165,71.092 7.89899867,71.0740002 8.166,71.038 C8.43300133,71.0019998 8.67899887,70.9450004 8.904,70.867 C9.12900113,70.7889996 9.34199899,70.6885006 9.543,70.5655 C9.74400101,70.4424994 9.94349901,70.2910009 10.1415,70.111 C10.2015003,70.0569997 10.2644997,70.0135002 10.3305,69.9805 C10.3965003,69.9474998 10.4684996,69.931 10.5465,69.931 Z M19.1715,67.915 L19.1715,73 L16.7505,73 L16.7505,59.986 L20.7195,59.986 C21.6075044,59.986 22.3679968,60.0774991 23.001,60.2605 C23.6340032,60.4435009 24.152998,60.6999984 24.558,61.03 C24.963002,61.3600017 25.2599991,61.7544977 25.449,62.2135 C25.6380009,62.6725023 25.7325,63.1779972 25.7325,63.73 C25.7325,64.1680022 25.6680006,64.581998 25.539,64.972 C25.4099994,65.362002 25.2240012,65.7159984 24.981,66.034 C24.7379988,66.3520016 24.4380018,66.6309988 24.081,66.871 C23.7239982,67.1110012 23.3175023,67.3029993 22.8615,67.447 C23.1675015,67.6210009 23.4314989,67.8699984 23.6535,68.194 L26.9115,73 L24.7335,73 C24.523499,73 24.3450007,72.9580004 24.198,72.874 C24.0509993,72.7899996 23.9265005,72.6700008 23.8245,72.514 L21.0885,68.347 C20.9864995,68.1909992 20.8740006,68.0800003 20.751,68.014 C20.6279994,67.9479997 20.4465012,67.915 20.2065,67.915 L19.1715,67.915 Z M19.1715,66.178 L20.6835,66.178 C21.1395023,66.178 21.5369983,66.1210006 21.876,66.007 C22.2150017,65.8929994 22.4939989,65.735501 22.713,65.5345 C22.9320011,65.333499 23.0954995,65.0950014 23.2035,64.819 C23.3115005,64.5429986 23.3655,64.2400016 23.3655,63.91 C23.3655,63.2499967 23.1480022,62.7430018 22.713,62.389 C22.2779978,62.0349982 21.6135045,61.858 20.7195,61.858 L19.1715,61.858 L19.1715,66.178 Z M37.2465,67.942 L37.2465,73 L34.8255,73 L34.8255,67.942 L30.0825,59.986 L32.2155,59.986 C32.4255011,59.986 32.5919994,60.0369995 32.715,60.139 C32.8380006,60.2410005 32.9414996,60.3699992 33.0255,60.526 L35.4105,64.873 C35.5485007,65.1310013 35.6684995,65.3754988 35.7705,65.6065 C35.8725005,65.8375012 35.9654996,66.0639989 36.0495,66.286 C36.1275004,66.0579989 36.2159995,65.8285012 36.315,65.5975 C36.4140005,65.3664988 36.5324993,65.1250013 36.6705,64.873 L39.0375,60.526 C39.1035003,60.3939993 39.2024993,60.2710006 39.3345,60.157 C39.4665007,60.0429994 39.634499,59.986 39.8385,59.986 L41.9805,59.986 L37.2465,67.942 Z M53.2155,62.353 C53.1494997,62.4850007 53.0730004,62.5779997 52.986,62.632 C52.8989996,62.6860003 52.7955006,62.713 52.6755,62.713 C52.5554994,62.713 52.4205008,62.6665005 52.2705,62.5735 C52.1204992,62.4804995 51.943501,62.3770006 51.7395,62.263 C51.535499,62.1489994 51.2970014,62.0455005 51.024,61.9525 C50.7509986,61.8594995 50.4285019,61.813 50.0565,61.813 C49.7204983,61.813 49.4280012,61.8534996 49.179,61.9345 C48.9299988,62.0155004 48.7200009,62.1279993 48.549,62.272 C48.3779991,62.4160007 48.2505004,62.588499 48.1665,62.7895 C48.0824996,62.990501 48.0405,63.2109988 48.0405,63.451 C48.0405,63.7570015 48.1259991,64.011999 48.297,64.216 C48.4680009,64.420001 48.6944986,64.5939993 48.9765,64.738 C49.2585014,64.8820007 49.5794982,65.0109994 49.9395,65.125 C50.2995018,65.2390006 50.6669981,65.3604994 51.042,65.4895 C51.4170019,65.6185006 51.7844982,65.7684991 52.1445,65.9395 C52.5045018,66.1105009 52.8254986,66.3264987 53.1075,66.5875 C53.3895014,66.8485013 53.6159991,67.1679981 53.787,67.546 C53.9580009,67.9240019 54.0435,68.3829973 54.0435,68.923 C54.0435,69.5110029 53.943001,70.0614974 53.742,70.5745 C53.540999,71.0875026 53.2470019,71.5344981 52.86,71.9155 C52.4729981,72.2965019 52.0005028,72.5964989 51.4425,72.8155 C50.8844972,73.0345011 50.2455036,73.144 49.5255,73.144 C49.1114979,73.144 48.703502,73.1035004 48.3015,73.0225 C47.899498,72.9414996 47.5140018,72.8260007 47.145,72.676 C46.7759982,72.5259992 46.4310016,72.346001 46.11,72.136 C45.7889984,71.925999 45.5025013,71.6920013 45.2505,71.434 L45.9525,70.273 C46.0185003,70.1889996 46.0979995,70.1185003 46.191,70.0615 C46.2840005,70.0044997 46.3874994,69.976 46.5015,69.976 C46.6515008,69.976 46.8134991,70.0374994 46.9875,70.1605 C47.1615009,70.2835006 47.3669988,70.4199993 47.604,70.57 C47.8410012,70.7200007 48.1199984,70.8564994 48.441,70.9795 C48.7620016,71.1025006 49.1474978,71.164 49.5975,71.164 C50.2875035,71.164 50.8214981,71.0005016 51.1995,70.6735 C51.5775019,70.3464984 51.7665,69.8770031 51.7665,69.265 C51.7665,68.9229983 51.6810009,68.6440011 51.51,68.428 C51.3389991,68.2119989 51.1125014,68.0305007 50.8305,67.8835 C50.5484986,67.7364993 50.2275018,67.6120005 49.8675,67.51 C49.5074982,67.4079995 49.1415019,67.2970006 48.7695,67.177 C48.3974981,67.0569994 48.0315018,66.9130008 47.6715,66.745 C47.3114982,66.5769992 46.9905014,66.3580013 46.7085,66.088 C46.4264986,65.8179986 46.2000009,65.480502 46.029,65.0755 C45.8579991,64.670498 45.7725,64.171003 45.7725,63.577 C45.7725,63.1029976 45.8669991,62.6410022 46.056,62.191 C46.2450009,61.7409977 46.5209982,61.3420017 46.884,60.994 C47.2470018,60.6459983 47.6924974,60.367001 48.2205,60.157 C48.7485026,59.9469989 49.3514966,59.842 50.0295,59.842 C50.7975038,59.842 51.5054968,59.9619988 52.1535,60.202 C52.8015032,60.4420012 53.3534977,60.7779978 53.8095,61.21 L53.2155,62.353 Z M68.0685,59.986 L68.0685,61.975 L64.1535,61.975 L64.1535,73 L61.7325,73 L61.7325,61.975 L57.7995,61.975 L57.7995,59.986 L68.0685,59.986 Z M82.7235,73 L80.8515,73 C80.6414989,73 80.4690007,72.9475005 80.334,72.8425 C80.1989993,72.7374995 80.1015003,72.6070008 80.0415,72.451 L79.0695,69.796 L73.6785,69.796 L72.7065,72.451 C72.6584998,72.5890007 72.5640007,72.7149994 72.423,72.829 C72.2819993,72.9430006 72.109501,73 71.9055,73 L70.0245,73 L75.1365,59.986 L77.6115,59.986 L82.7235,73 Z M74.2995,68.086 L78.4485,68.086 L76.8645,63.757 C76.7924996,63.564999 76.7130004,63.3385013 76.626,63.0775 C76.5389996,62.8164987 76.4535004,62.5330015 76.3695,62.227 C76.2854996,62.5330015 76.2030004,62.8179987 76.122,63.082 C76.0409996,63.3460013 75.9615004,63.576999 75.8835,63.775 L74.2995,68.086 Z M89.4855,71.002 L94.6965,71.002 L94.6965,73 L87.0645,73 L87.0645,59.986 L89.4855,59.986 L89.4855,71.002 Z M106.3455,62.353 C106.2795,62.4850007 106.203,62.5779997 106.116,62.632 C106.029,62.6860003 105.925501,62.713 105.8055,62.713 C105.685499,62.713 105.550501,62.6665005 105.4005,62.5735 C105.250499,62.4804995 105.073501,62.3770006 104.8695,62.263 C104.665499,62.1489994 104.427001,62.0455005 104.154,61.9525 C103.880999,61.8594995 103.558502,61.813 103.1865,61.813 C102.850498,61.813 102.558001,61.8534996 102.309,61.9345 C102.059999,62.0155004 101.850001,62.1279993 101.679,62.272 C101.507999,62.4160007 101.3805,62.588499 101.2965,62.7895 C101.2125,62.990501 101.1705,63.2109988 101.1705,63.451 C101.1705,63.7570015 101.255999,64.011999 101.427,64.216 C101.598001,64.420001 101.824499,64.5939993 102.1065,64.738 C102.388501,64.8820007 102.709498,65.0109994 103.0695,65.125 C103.429502,65.2390006 103.796998,65.3604994 104.172,65.4895 C104.547002,65.6185006 104.914498,65.7684991 105.2745,65.9395 C105.634502,66.1105009 105.955499,66.3264987 106.2375,66.5875 C106.519501,66.8485013 106.745999,67.1679981 106.917,67.546 C107.088001,67.9240019 107.1735,68.3829973 107.1735,68.923 C107.1735,69.5110029 107.073001,70.0614974 106.872,70.5745 C106.670999,71.0875026 106.377002,71.5344981 105.99,71.9155 C105.602998,72.2965019 105.130503,72.5964989 104.5725,72.8155 C104.014497,73.0345011 103.375504,73.144 102.6555,73.144 C102.241498,73.144 101.833502,73.1035004 101.4315,73.0225 C101.029498,72.9414996 100.644002,72.8260007 100.275,72.676 C99.9059982,72.5259992 99.5610016,72.346001 99.24,72.136 C98.9189984,71.925999 98.6325013,71.6920013 98.3805,71.434 L99.0825,70.273 C99.1485003,70.1889996 99.2279995,70.1185003 99.321,70.0615 C99.4140005,70.0044997 99.5174994,69.976 99.6315,69.976 C99.7815008,69.976 99.9434991,70.0374994 100.1175,70.1605 C100.291501,70.2835006 100.496999,70.4199993 100.734,70.57 C100.971001,70.7200007 101.249998,70.8564994 101.571,70.9795 C101.892002,71.1025006 102.277498,71.164 102.7275,71.164 C103.417503,71.164 103.951498,71.0005016 104.3295,70.6735 C104.707502,70.3464984 104.8965,69.8770031 104.8965,69.265 C104.8965,68.9229983 104.811001,68.6440011 104.64,68.428 C104.468999,68.2119989 104.242501,68.0305007 103.9605,67.8835 C103.678499,67.7364993 103.357502,67.6120005 102.9975,67.51 C102.637498,67.4079995 102.271502,67.2970006 101.8995,67.177 C101.527498,67.0569994 101.161502,66.9130008 100.8015,66.745 C100.441498,66.5769992 100.120501,66.3580013 99.8385,66.088 C99.5564986,65.8179986 99.3300009,65.480502 99.159,65.0755 C98.9879991,64.670498 98.9025,64.171003 98.9025,63.577 C98.9025,63.1029976 98.9969991,62.6410022 99.186,62.191 C99.3750009,61.7409977 99.6509982,61.3420017 100.014,60.994 C100.377002,60.6459983 100.822497,60.367001 101.3505,60.157 C101.878503,59.9469989 102.481497,59.842 103.1595,59.842 C103.927504,59.842 104.635497,59.9619988 105.2835,60.202 C105.931503,60.4420012 106.483498,60.7779978 106.9395,61.21 L106.3455,62.353 Z" id="CRYSTALS-Copy" fill="#341946"></path>
                <g id="Group-9-Copy" transform="translate(24.000000, 0.000000)">
                    <polygon id="Rectangle-3-Copy-5" fill="#CC1F9E" points="0 15 15 0 30 0 45 0 60 15 30 45"></polygon>
                    <polygon id="Rectangle-3-Copy-7" fill="#FF25C5" points="0 15 15 0 30 0 45 0 60 15"></polygon>
                    <polygon id="Rectangle-3-Copy-6" fill="#FF66D6" points="10.5 15 15 0 30 0 45 0 49.5 15 30 45"></polygon>
                    <polygon id="Rectangle-3-Copy-9" fill="#FF99E4" points="10.5 15 30 0 49.5 15"></polygon>
                </g>
            </g>
        </g>
    </g>
</svg>