<?xml version="1.0" encoding="utf-8"?>
<!-- Generator: Adobe Illustrator 14.0.0, SVG Export Plug-In . SVG Version: 6.00 Build 43363)  -->
<!DOCTYPE svg PUBLIC "-//W3C//DTD SVG 1.1//EN" "http://www.w3.org/Graphics/SVG/1.1/DTD/svg11.dtd">
<svg version="1.1" id="Layer_1" xmlns="http://www.w3.org/2000/svg" xmlns:xlink="http://www.w3.org/1999/xlink" x="0px" y="0px"
	 width="400px" height="250px" viewBox="0 0 400 250" enable-background="new 0 0 400 250" xml:space="preserve">
<g>
	<g>
		<path fill="#FA9900" d="M201.866,13.567C185.764,3.083,167.152-0.114,157.127,0.035C153.816,0.085,53.376,0.079,7.877,0
			C5.662-0.004,3.445,0.601,0.709,0.998c-0.195,3.28-0.516,6.188-0.517,9.097C0.165,86.556,0.289,163.019,0,239.479
			c-0.032,8.301,2.511,10.483,10.646,10.449c8.376-0.034,16.752-0.062,25.128-0.085C58.907,216.727,194.175,26.098,201.866,13.567z"
			/>
		<path fill="#F2ECCF" d="M231.095,248.182c0.258,0.362,0.484,0.677,0.68,0.949c0.447-0.033,0.907-0.067,1.389-0.1
			c-0.204-0.283-0.406-0.566-0.611-0.851L231.095,248.182z"/>
	</g>
	<path fill="#FABA00" d="M230.771,10.18l-11.906,18.154c1.317,1.845,2.537,3.769,3.661,5.76c9.512,13.144,15.203,29.246,15.413,46.7
		c0.489,40.667-28.92,74.73-67.818,81.295c20.727,28.983,55.307,77.26,62.935,87.91L400,249.784L230.771,10.18z"/>
</g>
</svg>
