<?xml version="1.0" encoding="utf-8"?>
<!-- Generator: Adobe Illustrator 17.0.0, SVG Export Plug-In . SVG Version: 6.00 Build 0)  -->
<!DOCTYPE svg PUBLIC "-//W3C//DTD SVG 1.1//EN" "http://www.w3.org/Graphics/SVG/1.1/DTD/svg11.dtd">
<svg version="1.1" id="Layer_1" xmlns="http://www.w3.org/2000/svg" xmlns:xlink="http://www.w3.org/1999/xlink" x="0px" y="0px"
	 width="108px" height="15.72px" viewBox="0 58.28 108 15.72" enable-background="new 0 58.28 108 15.72" xml:space="preserve">
<title>logo_dark@2x</title>
<desc>Created with Sketch.</desc>
<path id="CRYSTALS-Copy" fill="#341946" d="M10.547,69.931c0.132,0,0.246,0.051,0.342,0.153l0.954,1.035
	c-0.528,0.654-1.177,1.155-1.948,1.503s-1.696,0.522-2.777,0.522c-0.966,0-1.834-0.165-2.605-0.495s-1.429-0.789-1.976-1.377
	c-0.546-0.588-0.964-1.29-1.255-2.106s-0.437-1.707-0.437-2.673c0-0.978,0.162-1.873,0.486-2.686s0.78-1.513,1.368-2.101
	S3.99,60.66,4.81,60.333c0.819-0.327,1.723-0.491,2.714-0.491c0.966,0,1.81,0.154,2.533,0.464s1.342,0.718,1.859,1.229l-0.81,1.125
	c-0.048,0.072-0.109,0.135-0.184,0.189s-0.178,0.081-0.311,0.081c-0.138,0-0.279-0.054-0.423-0.162
	c-0.144-0.108-0.327-0.225-0.549-0.351s-0.502-0.243-0.842-0.351c-0.339-0.108-0.769-0.162-1.291-0.162
	c-0.612,0-1.174,0.106-1.688,0.319s-0.954,0.517-1.323,0.914c-0.369,0.396-0.657,0.877-0.864,1.444S3.32,65.785,3.32,66.493
	c0,0.732,0.103,1.383,0.311,1.953c0.207,0.57,0.487,1.05,0.841,1.44s0.771,0.688,1.251,0.896s0.996,0.311,1.548,0.311
	c0.33,0,0.628-0.018,0.896-0.054c0.267-0.036,0.513-0.093,0.738-0.171c0.225-0.078,0.438-0.178,0.639-0.301s0.4-0.274,0.599-0.454
	c0.06-0.054,0.123-0.098,0.189-0.131C10.397,69.948,10.469,69.931,10.547,69.931z M19.172,67.915V73H16.75V59.986h3.969
	c0.888,0,1.648,0.091,2.281,0.275c0.633,0.183,1.152,0.439,1.557,0.769c0.405,0.33,0.702,0.724,0.891,1.184
	c0.189,0.459,0.284,0.964,0.284,1.516c0,0.438-0.064,0.852-0.194,1.242s-0.315,0.744-0.558,1.062
	c-0.243,0.318-0.543,0.597-0.9,0.837c-0.357,0.24-0.763,0.432-1.22,0.576c0.306,0.174,0.57,0.423,0.792,0.747L26.912,73h-2.178
	c-0.21,0-0.389-0.042-0.535-0.126c-0.147-0.084-0.271-0.204-0.374-0.36l-2.736-4.167c-0.102-0.156-0.215-0.267-0.338-0.333
	c-0.123-0.066-0.304-0.099-0.544-0.099H19.172z M19.172,66.178h1.512c0.456,0,0.853-0.057,1.192-0.171
	c0.339-0.114,0.618-0.271,0.837-0.473c0.219-0.202,0.382-0.439,0.491-0.715c0.108-0.276,0.162-0.579,0.162-0.909
	c0-0.66-0.217-1.167-0.653-1.521s-1.099-0.531-1.993-0.531h-1.548C19.172,61.858,19.172,66.178,19.172,66.178z M37.246,67.942V73
	h-2.421v-5.058l-4.743-7.956h2.133c0.21,0,0.376,0.051,0.5,0.153s0.226,0.231,0.311,0.387l2.385,4.347
	c0.138,0.258,0.258,0.502,0.36,0.733s0.195,0.457,0.279,0.68c0.078-0.228,0.167-0.458,0.265-0.688
	c0.099-0.231,0.217-0.473,0.356-0.725l2.367-4.347c0.066-0.132,0.165-0.255,0.297-0.369s0.3-0.171,0.504-0.171h2.142L37.246,67.942z
	 M53.215,62.353c-0.066,0.132-0.142,0.225-0.229,0.279s-0.19,0.081-0.311,0.081c-0.12,0-0.255-0.047-0.405-0.139
	c-0.15-0.093-0.327-0.197-0.531-0.311c-0.204-0.114-0.442-0.217-0.715-0.311c-0.273-0.093-0.595-0.139-0.967-0.139
	c-0.336,0-0.628,0.041-0.877,0.122s-0.459,0.193-0.63,0.337s-0.299,0.316-0.382,0.518c-0.084,0.201-0.126,0.421-0.126,0.661
	c0,0.306,0.085,0.561,0.257,0.765c0.171,0.204,0.397,0.378,0.68,0.522c0.282,0.144,0.603,0.273,0.963,0.387s0.728,0.235,1.103,0.365
	c0.375,0.129,0.742,0.279,1.103,0.45c0.36,0.171,0.681,0.387,0.963,0.648s0.508,0.58,0.68,0.958
	c0.171,0.378,0.257,0.837,0.257,1.377c0,0.588-0.1,1.139-0.301,1.652s-0.495,0.96-0.882,1.341c-0.387,0.381-0.859,0.681-1.417,0.9
	s-1.197,0.328-1.917,0.328c-0.414,0-0.822-0.04-1.224-0.121s-0.787-0.196-1.156-0.346s-0.714-0.33-1.035-0.54
	s-0.607-0.444-0.86-0.702l0.702-1.161c0.066-0.084,0.146-0.155,0.239-0.212s0.196-0.086,0.31-0.086c0.15,0,0.312,0.062,0.486,0.185
	s0.38,0.259,0.617,0.41s0.516,0.286,0.837,0.41c0.321,0.123,0.706,0.185,1.156,0.185c0.69,0,1.224-0.163,1.602-0.491
	s0.567-0.796,0.567-1.409c0-0.342-0.085-0.621-0.257-0.837c-0.171-0.216-0.397-0.397-0.679-0.545s-0.603-0.271-0.963-0.373
	s-0.726-0.213-1.098-0.333c-0.372-0.12-0.738-0.264-1.098-0.432s-0.681-0.387-0.963-0.657s-0.508-0.607-0.68-1.012
	s-0.257-0.904-0.257-1.499c0-0.474,0.095-0.936,0.284-1.386s0.465-0.849,0.828-1.197s0.808-0.627,1.337-0.837
	c0.528-0.21,1.131-0.315,1.809-0.315c0.768,0,1.476,0.12,2.124,0.36s1.2,0.576,1.656,1.008L53.215,62.353z M68.068,59.986v1.989
	h-3.915V73h-2.421V61.975h-3.933v-1.989H68.068z M82.724,73h-1.872c-0.21,0-0.382-0.052-0.518-0.158
	c-0.135-0.105-0.232-0.235-0.293-0.392l-0.972-2.655h-5.391l-0.972,2.655c-0.048,0.138-0.142,0.264-0.284,0.378
	C72.282,72.943,72.11,73,71.906,73h-1.881l5.112-13.014h2.475L82.724,73z M74.299,68.086h4.149l-1.584-4.329
	c-0.072-0.192-0.152-0.418-0.239-0.68s-0.173-0.544-0.257-0.85c-0.084,0.306-0.166,0.591-0.247,0.855s-0.16,0.495-0.239,0.693
	L74.299,68.086z M89.485,71.002h5.211V73h-7.632V59.986h2.421C89.485,59.986,89.485,71.002,89.485,71.002z M106.345,62.353
	c-0.066,0.132-0.142,0.225-0.229,0.279s-0.19,0.081-0.311,0.081c-0.12,0-0.255-0.047-0.405-0.139
	c-0.15-0.093-0.327-0.197-0.531-0.311c-0.204-0.114-0.442-0.217-0.715-0.311c-0.273-0.093-0.595-0.139-0.967-0.139
	c-0.336,0-0.629,0.041-0.878,0.122s-0.459,0.193-0.63,0.337s-0.299,0.316-0.382,0.518c-0.084,0.201-0.126,0.421-0.126,0.661
	c0,0.306,0.085,0.561,0.257,0.765c0.171,0.204,0.397,0.378,0.679,0.522c0.282,0.144,0.603,0.273,0.963,0.387
	s0.727,0.235,1.102,0.365c0.375,0.129,0.743,0.279,1.103,0.45s0.681,0.387,0.963,0.648s0.508,0.58,0.679,0.958
	s0.257,0.837,0.257,1.377c0,0.588-0.101,1.139-0.301,1.652c-0.201,0.513-0.495,0.96-0.882,1.341c-0.387,0.381-0.859,0.681-1.417,0.9
	s-1.197,0.328-1.917,0.328c-0.414,0-0.822-0.04-1.224-0.121s-0.787-0.196-1.157-0.346s-0.714-0.33-1.035-0.54
	c-0.321-0.21-0.607-0.444-0.859-0.702l0.702-1.161c0.066-0.084,0.146-0.155,0.239-0.212s0.197-0.086,0.311-0.086
	c0.15,0,0.312,0.062,0.486,0.185s0.38,0.259,0.617,0.41s0.516,0.286,0.837,0.41s0.706,0.185,1.157,0.185
	c0.69,0,1.224-0.163,1.602-0.491c0.378-0.327,0.567-0.796,0.567-1.409c0-0.342-0.085-0.621-0.257-0.837
	c-0.171-0.216-0.397-0.397-0.679-0.545c-0.282-0.147-0.603-0.271-0.963-0.373s-0.726-0.213-1.098-0.333s-0.738-0.264-1.098-0.432
	s-0.681-0.387-0.963-0.657s-0.508-0.607-0.68-1.012c-0.171-0.405-0.257-0.904-0.257-1.499c0-0.474,0.095-0.936,0.284-1.386
	c0.189-0.45,0.465-0.849,0.828-1.197c0.363-0.348,0.808-0.627,1.337-0.837c0.528-0.21,1.131-0.315,1.809-0.315
	c0.768,0,1.476,0.12,2.124,0.36s1.2,0.576,1.656,1.008L106.345,62.353z"/>
<g id="Group-9-Copy" transform="translate(24.000000, 0.000000)" display="none">
	<polygon id="Rectangle-3-Copy-5" display="inline" fill="#CC1F9E" points="0,15 15,0 30,0 45,0 60,15 30,45 	"/>
	<polygon id="Rectangle-3-Copy-7" display="inline" fill="#FF25C5" points="0,15 15,0 30,0 45,0 60,15 	"/>
	<polygon id="Rectangle-3-Copy-6" display="inline" fill="#FF66D6" points="10.5,15 15,0 30,0 45,0 49.5,15 30,45 	"/>
	<polygon id="Rectangle-3-Copy-9" display="inline" fill="#FF99E4" points="10.5,15 30,0 49.5,15 	"/>
</g>
</svg>
