<?xml version="1.0" encoding="UTF-8" standalone="no"?>
<!-- Generator: Adobe Illustrator 17.1.0, SVG Export Plug-In . SVG Version: 6.00 Build 0)  -->

<svg
   xmlns:dc="http://purl.org/dc/elements/1.1/"
   xmlns:cc="http://creativecommons.org/ns#"
   xmlns:rdf="http://www.w3.org/1999/02/22-rdf-syntax-ns#"
   xmlns:svg="http://www.w3.org/2000/svg"
   xmlns="http://www.w3.org/2000/svg"
   xmlns:sodipodi="http://sodipodi.sourceforge.net/DTD/sodipodi-0.dtd"
   xmlns:inkscape="http://www.inkscape.org/namespaces/inkscape"
   version="1.1"
   id="Layer_1"
   x="0px"
   y="0px"
   viewBox="0 0 60 60"
   enable-background="new 0 0 60 60"
   xml:space="preserve"
   sodipodi:docname="telegram.svg"
   inkscape:version="0.92.2 (5c3e80d, 2017-08-06)"
   inkscape:export-filename="C:\Users\Admin\Desktop\icons\telegram.png"
   inkscape:export-xdpi="152.37042"
   inkscape:export-ydpi="152.37042"><metadata
     id="metadata1416"><rdf:RDF><cc:Work
         rdf:about=""><dc:format>image/svg+xml</dc:format><dc:type
           rdf:resource="http://purl.org/dc/dcmitype/StillImage" /></cc:Work></rdf:RDF></metadata><defs
     id="defs1414" /><sodipodi:namedview
     pagecolor="#ffffff"
     bordercolor="#666666"
     borderopacity="1"
     objecttolerance="10"
     gridtolerance="10"
     guidetolerance="10"
     inkscape:pageopacity="0"
     inkscape:pageshadow="2"
     inkscape:window-width="1857"
     inkscape:window-height="1057"
     id="namedview1412"
     showgrid="false"
     inkscape:zoom="11.125147"
     inkscape:cx="35.514936"
     inkscape:cy="37.488242"
     inkscape:window-x="-8"
     inkscape:window-y="-8"
     inkscape:window-maximized="1"
     inkscape:current-layer="g1409" /><g
     id="g1405" /><g
     id="g1409"><path
       fill="#FFFFFF"
       d="M37.6,22.1l-17.7,6.5c-1.2,0.5-1.2,1.1-0.2,1.4l4.4,1.3l1.7,4.9c0.2,0.5,0.1,0.8,0.7,0.8   c0.5,0,0.7-0.2,0.9-0.4c0.2-0.2,1.1-1,2.2-2.1l4.6,3.2c0.8,0.4,1.5,0.2,1.7-0.7l3-13.6C39.2,22.3,38.5,21.8,37.6,22.1z M24.8,31   l10-6c0.5-0.3,1-0.1,0.6,0.2l-8.5,7.3l-0.3,3.4L24.8,31z"
       id="path1407"
       style="fill:#24abdf;fill-opacity:1" /></g></svg>