<svg xmlns="http://www.w3.org/2000/svg" viewBox="-2317.8 -5439 33.496 39.379">
  <defs>
    <style>
      .cls-1 {
        fill: #006d39;
      }
    </style>
  </defs>
  <g id="avatar" transform="translate(-2353.873 -5439)">
    <g id="Group_189" data-name="Group 189" transform="translate(36.073)">
      <path id="Path_109" data-name="Path 109" class="cls-1" d="M145.45,21.218h.261a7.525,7.525,0,0,0,5.749-2.487c3.14-3.539,2.618-9.606,2.561-10.185-.2-4.346-2.259-6.426-3.955-7.4A9.067,9.067,0,0,0,145.678,0h-.139a9.081,9.081,0,0,0-4.387,1.117c-1.712.97-3.8,3.05-4,7.429-.057.579-.579,6.646,2.561,10.185A7.5,7.5,0,0,0,145.45,21.218ZM139.326,8.75c0-.024.008-.049.008-.065.269-5.847,4.42-6.475,6.2-6.475h.1c2.2.049,5.945.946,6.2,6.475a.159.159,0,0,0,.008.065c.008.057.579,5.6-2.014,8.522a5.345,5.345,0,0,1-4.2,1.745h-.082a5.327,5.327,0,0,1-4.191-1.745C138.763,14.369,139.318,8.8,139.326,8.75Z" transform="translate(-128.845)"/>
      <path id="Path_110" data-name="Path 110" class="cls-1" d="M69.566,269.385v-.025c0-.065-.008-.13-.008-.2-.049-1.615-.155-5.39-3.694-6.6l-.082-.024a23.529,23.529,0,0,1-6.768-3.082,1.1,1.1,0,0,0-1.264,1.8,25.4,25.4,0,0,0,7.445,3.4c1.9.677,2.112,2.707,2.169,4.567a1.638,1.638,0,0,0,.008.2,14.8,14.8,0,0,1-.171,2.52,30.012,30.012,0,0,1-14.377,3.343,30.183,30.183,0,0,1-14.385-3.352,14.012,14.012,0,0,1-.171-2.52c0-.065.008-.131.008-.2.057-1.859.269-3.89,2.169-4.567a25.638,25.638,0,0,0,7.445-3.4,1.1,1.1,0,0,0-1.264-1.8,23.273,23.273,0,0,1-6.768,3.082c-.033.008-.057.016-.082.024-3.539,1.215-3.645,4.991-3.694,6.6a1.639,1.639,0,0,1-.008.2v.024a12.505,12.505,0,0,0,.416,3.694,1.046,1.046,0,0,0,.424.514c.245.163,6.108,3.9,15.918,3.9s15.673-3.743,15.918-3.9a1.091,1.091,0,0,0,.424-.514A13.12,13.12,0,0,0,69.566,269.385Z" transform="translate(-36.073 -238.104)"/>
    </g>
  </g>
</svg>
