<svg xmlns="http://www.w3.org/2000/svg" viewBox="-2177.8 -5438.88 36.5 35.8">
  <defs>
    <style>
      .cls-1 {
        fill: #006d39;
      }
    </style>
  </defs>
  <g id="coin" transform="translate(-2178.3 -5438.88)">
    <path id="Path_91" data-name="Path 91" class="cls-1" d="M20.671,0A14.892,14.892,0,0,0,18.74.13,14.862,14.862,0,0,0,16.829,0,15.188,15.188,0,0,0,8.293,2.648l0,0A16.887,16.887,0,0,0,4.88,5.718a.608.608,0,0,0-.077.089A18.072,18.072,0,0,0,2.376,9.585a.571.571,0,0,0-.045.1A18.838,18.838,0,0,0,1.2,12.7a.6.6,0,0,0-.05.192A19.435,19.435,0,0,0,.5,17.9a19.224,19.224,0,0,0,1.551,7.6.5.5,0,0,0,.031.074A18.253,18.253,0,0,0,4.3,29.365a.6.6,0,0,0,.072.091,17.122,17.122,0,0,0,3.034,3.049.62.62,0,0,0,.113.088A15.27,15.27,0,0,0,16.829,35.8a14.862,14.862,0,0,0,1.911-.13,14.892,14.892,0,0,0,1.931.13c9,0,16.329-8.03,16.329-17.9S29.675,0,20.671,0ZM13.9,1.62q-.305.154-.6.32c-.121.067-.243.133-.362.2-.175.1-.347.214-.519.325H11.177a13.819,13.819,0,0,1,2.932-.962C14.037,1.542,13.968,1.584,13.9,1.62ZM7.454,28.393h-2.3a16.929,16.929,0,0,1-1.5-2.469H6.081q.151.329.312.649c.046.091.095.181.142.271q.2.374.411.736c.052.089.1.178.156.266C7.216,28.032,7.334,28.213,7.454,28.393Zm-4.093-17.9H5.812q-.169.406-.319.82c-.028.076-.055.151-.082.227-.093.265-.179.533-.26.8H2.65A17.435,17.435,0,0,1,3.361,10.493ZM1.781,17.9c0-.416.023-.826.05-1.234H4.384c0,.01,0,.02,0,.03-.024.4-.04.8-.04,1.2,0,.207.008.412.014.617H1.806C1.8,18.311,1.781,18.108,1.781,17.9Zm2.648,1.852c.024.26.056.518.09.775,0,.019,0,.038.006.057.047.343.105.683.17,1.02H2.17a18.229,18.229,0,0,1-.287-1.852Zm.4-6.172c-.017.073-.031.148-.047.221s-.035.161-.051.242c-.078.388-.148.778-.2,1.175,0,.019,0,.038-.006.057-.007.052-.012.1-.019.157H1.959A18.033,18.033,0,0,1,2.3,13.579Zm.153,9.259c.02.076.038.152.06.228.007.027.013.054.021.08.106.377.224.747.352,1.112.026.076.054.151.082.227s.048.136.073.2H3.1a17.634,17.634,0,0,1-.629-1.852h2.51ZM7.1,7.953c-.053.088-.1.177-.156.266q-.213.362-.411.736c-.047.09-.1.18-.142.271-.006.011-.012.022-.017.033h-2.4A16.745,16.745,0,0,1,5.639,6.79H7.882C7.8,6.9,7.725,7,7.65,7.114,7.461,7.388,7.277,7.667,7.1,7.953ZM8.972,3.7h1.769c-.158.133-.316.268-.471.407-.13.119-.256.241-.383.364s-.25.244-.371.37-.239.244-.355.37-.2.226-.3.34H6.749A15.374,15.374,0,0,1,8.972,3.7ZM6.15,29.628h2.2c.072.091.144.183.218.273q.29.351.6.685c.116.127.235.248.355.37s.246.249.371.37c.052.051.1.1.154.154H8.117A15.649,15.649,0,0,1,6.15,29.628Zm7.959,4.666a13.963,13.963,0,0,1-4.143-1.58h1.549c.08.059.162.115.243.173.136.1.272.2.41.289q.374.251.76.48c.12.071.241.136.362.2q.3.167.6.32C13.968,34.216,14.037,34.258,14.109,34.293Zm6.562.272a13.693,13.693,0,0,1-1.507-.084l-.254-.034-.094-.013q-.334-.045-.663-.107l-.047-.009q-.322-.061-.638-.136l-.083-.022c-.2-.049-.394-.1-.589-.158-.053-.015-.1-.033-.156-.049-.17-.052-.339-.1-.505-.164-.118-.041-.235-.088-.352-.132-.1-.038-.2-.073-.3-.114a15.7,15.7,0,0,1-8.034-7.693l-.045-.1c-.093-.193-.184-.388-.271-.585-.034-.077-.065-.156-.1-.233-.065-.154-.129-.309-.191-.466-.038-.1-.075-.2-.112-.3-.051-.138-.1-.276-.149-.416-.038-.113-.075-.227-.111-.341q-.062-.2-.121-.4c-.035-.12-.069-.241-.1-.362s-.069-.26-.1-.392-.06-.249-.088-.375-.056-.264-.083-.4-.05-.252-.072-.379-.045-.275-.067-.414-.038-.248-.055-.373c-.02-.148-.035-.3-.051-.447-.013-.117-.027-.233-.037-.35-.015-.172-.026-.344-.036-.518-.006-.1-.014-.194-.019-.291q-.019-.406-.02-.819c0-.275.007-.549.019-.821,0-.1.013-.194.019-.291.01-.173.02-.346.036-.518.01-.117.024-.233.037-.35.016-.149.032-.3.051-.448.017-.125.037-.249.055-.373s.043-.277.067-.414.047-.253.072-.379.054-.265.083-.4.058-.25.088-.375.066-.262.1-.392.066-.242.1-.362.079-.264.121-.4c.038-.112.074-.227.112-.339.047-.139.1-.278.149-.416.037-.1.073-.2.112-.3.061-.157.126-.312.191-.466.033-.078.064-.156.1-.233.086-.2.177-.392.271-.585.015-.032.029-.065.045-.1a15.7,15.7,0,0,1,8.034-7.693c.1-.04.2-.075.3-.114.117-.044.234-.091.352-.132.167-.058.336-.112.505-.164.052-.016.1-.034.156-.049.195-.057.391-.109.589-.158l.083-.022q.316-.076.638-.136l.047-.009q.329-.061.663-.107l.094-.013.254-.034a13.693,13.693,0,0,1,1.507-.084c8.3,0,15.048,7.476,15.048,16.666S28.969,34.566,20.671,34.566Z" transform="translate(0 0)"/>
    <path id="Path_92" data-name="Path 92" class="cls-1" d="M31.632,7.71a10.6,10.6,0,0,1,1.164.065.625.625,0,0,0,.075,0,.632.632,0,0,0,.635-.546.623.623,0,0,0-.562-.685,11.735,11.735,0,0,0-1.324-.073h-.008l-.008.617V6.476a.617.617,0,0,0-.627.617A.641.641,0,0,0,31.632,7.71Z" transform="translate(-10.961 -2.479)"/>
    <path id="Path_93" data-name="Path 93" class="cls-1" d="M23.969,9.266a.658.658,0,0,0,.29-.067,10.79,10.79,0,0,1,1.094-.465.611.611,0,0,0,.375-.794.646.646,0,0,0-.824-.362,12.1,12.1,0,0,0-1.227.522.607.607,0,0,0-.28.83A.644.644,0,0,0,23.969,9.266Z" transform="translate(-8.21 -2.885)"/>
    <path id="Path_94" data-name="Path 94" class="cls-1" d="M48.921,22.089a.636.636,0,0,0,.621.467.68.68,0,0,0,.156-.019.616.616,0,0,0,.466-.749c-.107-.41-.233-.822-.376-1.223a.647.647,0,0,0-.814-.383.613.613,0,0,0-.4.785C48.707,21.334,48.823,21.712,48.921,22.089Z" transform="translate(-17.278 -7.712)"/>
    <path id="Path_95" data-name="Path 95" class="cls-1" d="M46.647,14.5c-.248-.352-.515-.7-.8-1.026a.658.658,0,0,0-.9-.085.6.6,0,0,0-.088.869c.255.3.5.613.724.934a.646.646,0,0,0,.531.271.657.657,0,0,0,.359-.106A.6.6,0,0,0,46.647,14.5Z" transform="translate(-15.903 -5.072)"/>
    <path id="Path_96" data-name="Path 96" class="cls-1" d="M30.93,49.48a10.427,10.427,0,0,1-1.189-.068.636.636,0,0,0-.712.54.623.623,0,0,0,.56.686,11.846,11.846,0,0,0,1.342.077h.054A.606.606,0,0,0,31.6,50.1.654.654,0,0,0,30.93,49.48Z" transform="translate(-10.259 -18.912)"/>
    <path id="Path_97" data-name="Path 97" class="cls-1" d="M44.465,42.879c-.254.3-.525.593-.806.867a.6.6,0,0,0,.006.873.657.657,0,0,0,.905,0c.309-.3.607-.623.888-.954a.6.6,0,0,0-.093-.868A.657.657,0,0,0,44.465,42.879Z" transform="translate(-15.455 -16.326)"/>
    <path id="Path_98" data-name="Path 98" class="cls-1" d="M38.406,47.711a10.671,10.671,0,0,1-1.092.467.61.61,0,0,0-.373.8.639.639,0,0,0,.6.4.662.662,0,0,0,.226-.04,12.079,12.079,0,0,0,1.226-.524.607.607,0,0,0,.277-.831A.652.652,0,0,0,38.406,47.711Z" transform="translate(-13.091 -18.236)"/>
    <path id="Path_99" data-name="Path 99" class="cls-1" d="M40.684,9.009a12.1,12.1,0,0,0-1.16-.644.651.651,0,0,0-.86.273.606.606,0,0,0,.283.829,10.918,10.918,0,0,1,1.037.576.655.655,0,0,0,.886-.18A.6.6,0,0,0,40.684,9.009Z" transform="translate(-13.701 -3.176)"/>
    <path id="Path_100" data-name="Path 100" class="cls-1" d="M50.447,27.968a.645.645,0,0,0-.64.637c0,.381-.015.763-.045,1.135a.624.624,0,0,0,.589.663l.05,0a.631.631,0,0,0,.638-.57c.033-.4.049-.818.049-1.231v-.04A.613.613,0,0,0,50.447,27.968Z" transform="translate(-17.716 -10.705)"/>
    <path id="Path_101" data-name="Path 101" class="cls-1" d="M13.448,27.868c0-.385.016-.775.047-1.16a.625.625,0,0,0-.588-.664.639.639,0,0,0-.688.567c-.034.417-.051.841-.051,1.257v.013a.623.623,0,0,0,.64.61A.634.634,0,0,0,13.448,27.868Z" transform="translate(-4.196 -9.968)"/>
    <path id="Path_102" data-name="Path 102" class="cls-1" d="M49.17,35.763a.648.648,0,0,0-.811.388c-.129.369-.277.736-.437,1.093a.609.609,0,0,0,.332.812.655.655,0,0,0,.255.051.642.642,0,0,0,.588-.371c.175-.388.335-.789.476-1.191A.611.611,0,0,0,49.17,35.763Z" transform="translate(-17.036 -13.676)"/>
    <path id="Path_103" data-name="Path 103" class="cls-1" d="M14.788,18.432a.646.646,0,0,0-.843.317c-.175.386-.337.787-.479,1.191a.614.614,0,0,0,.4.783.662.662,0,0,0,.206.033.64.64,0,0,0,.606-.419c.13-.37.278-.738.439-1.091A.61.61,0,0,0,14.788,18.432Z" transform="translate(-4.651 -7.035)"/>
    <path id="Path_104" data-name="Path 104" class="cls-1" d="M17.244,41.4a.656.656,0,0,0-.889-.166.6.6,0,0,0-.172.857c.251.357.517.7.793,1.027a.657.657,0,0,0,.9.086.6.6,0,0,0,.09-.869C17.717,42.039,17.474,41.724,17.244,41.4Z" transform="translate(-5.601 -15.742)"/>
    <path id="Path_105" data-name="Path 105" class="cls-1" d="M14.146,34.377a.643.643,0,0,0-.776-.45.616.616,0,0,0-.467.748c.106.411.232.823.375,1.224a.639.639,0,0,0,.606.418.671.671,0,0,0,.207-.033.613.613,0,0,0,.4-.784C14.359,35.133,14.244,34.755,14.146,34.377Z" transform="translate(-4.454 -12.979)"/>
    <path id="Path_106" data-name="Path 106" class="cls-1" d="M18.265,12.027c-.309.3-.608.621-.89.953a.6.6,0,0,0,.091.868.657.657,0,0,0,.9-.087c.256-.3.527-.593.807-.865a.6.6,0,0,0,0-.873A.657.657,0,0,0,18.265,12.027Z" transform="translate(-6.017 -4.533)"/>
    <path id="Path_107" data-name="Path 107" class="cls-1" d="M23.679,47.369a10.906,10.906,0,0,1-1.036-.579.656.656,0,0,0-.887.178.6.6,0,0,0,.185.854,12.273,12.273,0,0,0,1.159.647.652.652,0,0,0,.289.067.644.644,0,0,0,.572-.338A.606.606,0,0,0,23.679,47.369Z" transform="translate(-7.607 -17.871)"/>
  </g>
</svg>
