<svg id="Шар_1" xmlns="http://www.w3.org/2000/svg" xmlns:xlink="http://www.w3.org/1999/xlink" width="374" height="100" viewBox="0 0 374 100"><style>.st0,.st1,.st2,.st3{clip-path:url(#SVGID_2_);fill-rule:evenodd;clip-rule:evenodd;fill:#006d39}.st1,.st2,.st3{fill:#75e036}.st2,.st3{fill:#2abc2a}.st3{fill:#059947}</style><defs><path id="SVGID_1_" d="M0 0h374v100H0z"/></defs><clipPath id="SVGID_2_"><use xlink:href="#SVGID_1_" overflow="visible"/></clipPath><path class="st0" d="M135.964 40.282c2.447-1 4.542-2.412 6.285-4.238 1.743-1.824 3.084-4.021 4.024-6.59.939-2.57 1.409-5.444 1.409-8.621 0-2.865-.42-5.562-1.263-8.093-.841-2.53-2.095-4.736-3.758-6.62-1.665-1.883-3.741-3.374-6.227-4.472C133.947.548 131.041 0 127.711 0h-14.155v41.783h14.155c3.054 0 5.805-.5 8.253-1.501M117.667 3.648h10.044c2.546 0 4.798.421 6.755 1.265 1.959.844 3.613 2.03 4.963 3.562 1.351 1.529 2.379 3.344 3.084 5.443.706 2.099 1.058 4.403 1.058 6.915 0 2.471-.343 4.756-1.029 6.856-.685 2.098-1.693 3.922-3.025 5.472-1.33 1.55-2.986 2.765-4.962 3.648-1.979.884-4.26 1.325-6.844 1.325h-10.044V3.648zM159.312 28.719h18.737l5.405 13.065h4.346L170.472 0h-3.465l-17.446 41.784h4.406l5.345-13.065zm9.398-23.893l8.399 20.656h-16.916l8.517-20.656zM200.313 41.783h4.111V3.648h14.862V0h-33.835v3.648h14.862zM221.282 41.784l5.345-13.065h18.738l5.404 13.065h4.346L237.787 0h-3.465l-17.446 41.784h4.406zm14.743-36.958l8.4 20.656h-16.917l8.517-20.656zM112.795 67.927h12.041v31.779h11.454V67.927h11.983V57.923h-35.478zM202.897 57.923l-14.485 41.719-8.774-15.295c1.88-1.335 3.348-3.051 4.405-5.15 1.058-2.098 1.586-4.363 1.586-6.797 0-1.764-.352-3.52-1.057-5.267a15.422 15.422 0 0 0-2.907-4.649c-1.234-1.353-2.713-2.452-4.436-3.295-1.722-.843-3.603-1.266-5.638-1.266h-19.149v41.783h11.453V86.877h4.29l7.341 12.829h24.552l2.467-8.18h11.101l2.525 8.18h11.631l-14.45-41.783h-10.455zm-29.808 17.773c-.608.785-1.263 1.177-1.968 1.177h-7.226v-8.946h6.933c.704 0 1.409.383 2.114 1.148.704.765 1.057 1.873 1.057 3.325 0 1.413-.303 2.511-.91 3.296m31.159 8.18l3.877-12.946 3.701 12.946h-7.578zM262.985 64.044c-1.762-1.884-3.955-3.374-6.579-4.472-2.623-1.099-5.658-1.649-9.103-1.649h-16.037v41.783h16.037c3.171 0 6.049-.501 8.633-1.501 2.585-1 4.797-2.412 6.638-4.236 1.841-1.826 3.259-4.022 4.258-6.592.999-2.571 1.498-5.444 1.498-8.621 0-2.864-.45-5.561-1.351-8.091-.9-2.532-2.232-4.739-3.994-6.621m-6.902 19.067c-.411 1.333-1.017 2.49-1.821 3.472a8.341 8.341 0 0 1-2.966 2.294c-1.174.55-2.506.824-3.993.824h-4.582V67.927h4.582c1.447 0 2.76.265 3.934.794a8.342 8.342 0 0 1 2.967 2.208c.803.942 1.42 2.078 1.85 3.413.43 1.333.646 2.805.646 4.414 0 1.569-.206 3.02-.617 4.355M273.322 57.923h11.454v41.783h-11.454zM317.611 79.167l-16.74-21.245h-8.928v41.784h11.454V79.167l16.565 20.539h9.103V57.922h-11.454zM356.848 77.461V85.7h7.225c-2.546 2.745-5.482 4.119-8.81 4.119-1.451 0-2.761-.265-3.936-.795a8.743 8.743 0 0 1-3.026-2.236c-.841-.961-1.497-2.109-1.967-3.442-.47-1.334-.705-2.826-.705-4.473 0-1.609.235-3.089.705-4.443.47-1.353 1.116-2.52 1.938-3.501a8.796 8.796 0 0 1 2.938-2.296c1.134-.548 2.388-.824 3.759-.824 1.84 0 3.582.501 5.227 1.501 1.644 1.002 2.879 2.325 3.701 3.973l8.516-6.533a14.61 14.61 0 0 0-2.878-3.795 18.795 18.795 0 0 0-3.964-2.883 19.23 19.23 0 0 0-4.788-1.826 23.152 23.152 0 0 0-5.403-.618c-3.015 0-5.825.541-8.43 1.62-2.603 1.078-4.865 2.548-6.783 4.413-1.92 1.863-3.426 4.06-4.524 6.591-1.095 2.531-1.644 5.267-1.644 8.209 0 3.413.549 6.454 1.644 9.122 1.098 2.668 2.566 4.923 4.407 6.768a18.529 18.529 0 0 0 6.46 4.207 21.151 21.151 0 0 0 7.754 1.442c3.876 0 7.302-1.256 10.279-3.767v3.473H374V77.461h-17.152z"/><path class="st1" d="M0 46.064V6.263C0 2.941 2.688.248 6.003.248h31.005c7.954 0 14.957 1.271 21.012 3.802 5.023 2.105 9.364 4.833 13.021 8.183-19.736 4.231-29.059 22.938-37.747 39.143-.559-.516-1.118-1.05-1.69-1.598-4.286-4.105-9.14-8.754-18.199-8.754l-.174.001C8.43 41.056 3.915 42.803 0 46.064"/><path class="st2" d="M33.295 51.375c8.688-16.204 18.011-34.912 37.747-39.143a40.808 40.808 0 0 1 2.162 2.141 42.467 42.467 0 0 1 6.059 8.321c-6.997 4.637-12.258 11.948-16.9 18.409-5.932 8.255-11.054 15.385-17.87 15.385-4.989 0-8.081-2.238-11.198-5.113"/><path class="st3" d="M30.486 56.52C24.163 67.8 17.618 76.773 7.049 76.834c-2.817.017-5.146-.338-7.049-.856V54.083l1.817-1.932c2.304-2.451 6.16-5.38 11.451-5.413l.136-.001c6.771 0 10.244 3.325 14.259 7.171.903.863 1.834 1.751 2.823 2.612"/><path class="st0" d="M85.541 48.329c0 7.333-1.153 13.965-3.458 19.896-2.304 5.93-5.58 11.002-9.829 15.212-4.247 4.211-9.354 7.472-15.317 9.779-5.966 2.306-12.611 3.463-19.929 3.463H6.003C2.688 96.679 0 93.987 0 90.663V75.977c1.903.518 4.231.873 7.05.856 10.568-.061 17.113-9.033 23.435-20.314 3.461 3.014 7.652 5.682 14.007 5.682 9.737 0 15.936-8.627 22.498-17.76 4.403-6.129 8.964-12.431 14.769-16.513.228.569.454 1.14.662 1.724 2.08 5.842 3.12 12.066 3.12 18.677"/></svg>