<svg xmlns="http://www.w3.org/2000/svg" viewBox="-2248.8 -5439.2 35.1 36.233">
  <defs>
    <style>
      .cls-1 {
        fill: #006d39;
      }
    </style>
  </defs>
  <g id="wallet" transform="translate(-2261.008 -5442.2)">
    <g id="Group_188" data-name="Group 188" transform="translate(12.208 3)">
      <g id="Group_187" data-name="Group 187" transform="translate(0)">
        <path id="Path_90" data-name="Path 90" class="cls-1" d="M41.948,21.224h-.542V16.339a2.293,2.293,0,0,0-.973-1.874V13.8a1.751,1.751,0,0,0-1.749-1.749h-.4l1.549-2.273a1.674,1.674,0,0,0-.44-2.324L28.876.291a1.672,1.672,0,0,0-2.324.44L17.48,14.045H14.955l.609-6.166a.183.183,0,0,1,.115-.153,3.925,3.925,0,0,0,1.915-1.556.182.182,0,0,1,.172-.081l3.96.391a.516.516,0,1,0,.1-1.028l-3.96-.391a1.208,1.208,0,0,0-1.144.554,2.886,2.886,0,0,1-1.408,1.144,1.207,1.207,0,0,0-.778,1.018l-.619,6.268h-.658l.963-9.752a.64.64,0,0,1,.7-.574l8,.79a.516.516,0,1,0,.1-1.028l-8-.79a1.674,1.674,0,0,0-1.829,1.5l-.776,7.86H11.1A1.751,1.751,0,0,0,9.347,13.8v.454a2.3,2.3,0,0,0-1.339,2.085v17.6A2.3,2.3,0,0,0,10.3,36.234H39.111a2.3,2.3,0,0,0,2.295-2.295V29.055h.542a1.162,1.162,0,0,0,1.161-1.161v-5.51A1.162,1.162,0,0,0,41.948,21.224Zm-3.264-8.14h0a.718.718,0,0,1,.717.717v.263a2.3,2.3,0,0,0-.29-.019H36.92l.655-.961ZM27.406,1.313a.636.636,0,0,1,.41-.268.649.649,0,0,1,.12-.011.635.635,0,0,1,.359.111L38.806,8.308a.64.64,0,0,1,.168.889l-3.3,4.848h-.793l1.62-2.377a1.207,1.207,0,0,0,.056-1.28,2.885,2.885,0,0,1-.346-1.781,1.207,1.207,0,0,0-.522-1.159L30.236,3.734a1.207,1.207,0,0,0-1.27-.062A2.886,2.886,0,0,1,27.183,4a1.222,1.222,0,0,0-1.171.521l-6.489,9.523h-.793Zm.227,8.768a4.26,4.26,0,0,0-4.244,3.964H20.772L26.865,5.1h0a.184.184,0,0,1,.151-.081l.024,0a3.925,3.925,0,0,0,2.426-.448.182.182,0,0,1,.189.012L35.1,8.3a.183.183,0,0,1,.08.172,3.924,3.924,0,0,0,.47,2.422.183.183,0,0,1-.01.192l-2.016,2.958h-1.75A4.261,4.261,0,0,0,27.633,10.08Zm3.209,3.964H24.424a3.222,3.222,0,0,1,6.418,0ZM10.379,13.8a.718.718,0,0,1,.717-.717h1.22l-.095.961H10.379ZM9.041,16.339A1.264,1.264,0,0,1,10.3,15.077H39.111a1.264,1.264,0,0,1,1.262,1.262v1.433H9.041Zm31.332,17.6A1.264,1.264,0,0,1,39.111,35.2H10.3a1.264,1.264,0,0,1-1.262-1.262V32.507h2.784a.516.516,0,0,0,0-1.033H9.041V18.8H40.373v2.419H35.464a3.92,3.92,0,0,0-3.522,2.207l-.007.013-.015.034a3.894,3.894,0,0,0-.2.5h0a3.917,3.917,0,0,0,3.74,5.078h4.909v2.419H15.131a.516.516,0,0,0,0,1.033H40.373Zm1.7-6.045a.128.128,0,0,1-.128.128H35.464a2.886,2.886,0,0,1-2.535-1.51q-.033-.061-.064-.124-.061-.126-.109-.259a2.886,2.886,0,0,1,0-1.981q.049-.132.109-.259.03-.063.064-.124a2.886,2.886,0,0,1,2.535-1.51h6.484a.128.128,0,0,1,.128.128v5.51Z" transform="translate(-8.008 0)"/>
      </g>
    </g>
  </g>
</svg>
